<svg width="18" height="18" fill="none" xmlns="http://www.w3.org/2000/svg"><g clip-path="url(#a)"><path opacity=".5" d="M11.99 9a2.953 2.953 0 0 0-.878-2.118 2.949 2.949 0 0 0-2.106-.875 2.948 2.948 0 0 0-2.118.874 2.95 2.95 0 0 0-.873 2.118 2.95 2.95 0 0 0 2.987 2.988 2.947 2.947 0 0 0 2.106-.874 2.948 2.948 0 0 0 .877-2.118L11.99 9Zm1.626 0a4.636 4.636 0 0 1-1.356 3.266 4.633 4.633 0 0 1-3.258 1.352 4.634 4.634 0 0 1-3.265-1.355A4.636 4.636 0 0 1 4.38 8.997a4.633 4.633 0 0 1 4.62-4.622 4.634 4.634 0 0 1 3.265 1.355 4.636 4.636 0 0 1 1.353 3.266L13.616 9Zm1.263-4.798c-.002.286-.115.56-.316.764a1.034 1.034 0 0 1-.763.3 1.034 1.034 0 0 1-1.065-1.064 1.036 1.036 0 0 1 .652-.994c.131-.051.272-.076.413-.071a1.034 1.034 0 0 1 .763.301c.2.204.313.477.316.763ZM9.002 1.629a90.223 90.223 0 0 0-2.7 0 8.447 8.447 0 0 0-2.6.362c-.192.076-.377.17-.552.281a2.875 2.875 0 0 0-.482.392 2.876 2.876 0 0 0-.392.482c-.111.175-.205.36-.281.552a8.453 8.453 0 0 0-.362 2.6A194.247 194.247 0 0 0 1.61 9c0 .724.007 1.624.02 2.701-.015.882.108 1.76.365 2.603a2.876 2.876 0 0 0 .673 1.034c.146.148.308.28.482.393.175.11.36.205.552.28.842.256 1.72.378 2.6.362 1.076.014 1.976.02 2.7.02.723 0 1.623-.006 2.7-.02a8.447 8.447 0 0 0 2.6-.361c.192-.076.376-.17.551-.281a2.87 2.87 0 0 0 .482-.392c.148-.146.28-.308.392-.483.111-.175.205-.36.281-.552.256-.842.377-1.72.362-2.6.013-1.077.02-1.977.02-2.7 0-.724-.007-1.626-.021-2.706a8.454 8.454 0 0 0-.362-2.6 3.29 3.29 0 0 0-.28-.552 2.878 2.878 0 0 0-.393-.482 2.876 2.876 0 0 0-.482-.392 3.283 3.283 0 0 0-.552-.281 8.447 8.447 0 0 0-2.6-.362 90.133 90.133 0 0 0-2.698 0Zm8.994 7.374a69.305 69.305 0 0 1-.06 3.715 7.077 7.077 0 0 1-.361 2.028 4.474 4.474 0 0 1-1.104 1.723 4.473 4.473 0 0 1-1.727 1.1 7.067 7.067 0 0 1-2.028.362 62.706 62.706 0 0 1-3.714.06 65.182 65.182 0 0 1-3.715-.055 7.07 7.07 0 0 1-2.027-.366 4.472 4.472 0 0 1-1.73-1.1 4.473 4.473 0 0 1-1.105-1.727 7.074 7.074 0 0 1-.36-2.028A67.72 67.72 0 0 1 .004 9C-.01 7.768.01 6.53.064 5.286c.02-.69.142-1.373.36-2.028A4.474 4.474 0 0 1 1.53 1.53 4.473 4.473 0 0 1 3.255.426 7.07 7.07 0 0 1 5.283.065a69.173 69.173 0 0 1 3.713-.06c1.232-.013 2.47.007 3.714.06.69.02 1.373.143 2.027.361.652.23 1.242.607 1.723 1.103a4.474 4.474 0 0 1 1.104 1.727c.219.655.34 1.338.361 2.028.055 1.248.076 2.486.062 3.715l.009.004Z" fill="#0C2050"/></g><defs><clipPath id="a"><path fill="#fff" d="M0 0h18v18H0z"/></clipPath></defs></svg>