<svg width="18" height="15" fill="none" xmlns="http://www.w3.org/2000/svg"><g clip-path="url(#a)"><path opacity=".5" d="M18 1.782a7.467 7.467 0 0 1-2.121.595A3.82 3.82 0 0 0 17.508.271a7.156 7.156 0 0 1-2.356.92 3.692 3.692 0 0 0-1.199-.876A3.526 3.526 0 0 0 12.46 0a3.586 3.586 0 0 0-1.414.286 3.768 3.768 0 0 0-1.999 2.05c-.186.46-.28.954-.279 1.451 0 .291.031.581.092.866A10.362 10.362 0 0 1 4.59 3.47 10.539 10.539 0 0 1 1.253.686a4.053 4.053 0 0 0-.492 1.911 3.774 3.774 0 0 0 1.636 3.159A3.594 3.594 0 0 1 .72 5.283v.036c.003.88.302 1.733.847 2.414.54.67 1.289 1.13 2.12 1.299-.318.098-.649.148-.981.148-.23 0-.46-.023-.686-.072.229.746.68 1.399 1.29 1.867a3.7 3.7 0 0 0 2.154.766A7.499 7.499 0 0 1 .872 13.36c-.292 0-.583-.02-.873-.055.826.544 1.723.966 2.663 1.253.973.297 1.983.446 2.997.442 3.411-.132 6.013-1.3 7.806-3.508a11.36 11.36 0 0 0 2.706-7.275c0-.157-.006-.32-.017-.488a7.787 7.787 0 0 0 1.844-1.943L18 1.782Z" fill="#0C2050"/></g><defs><clipPath id="a"><path fill="#fff" d="M0 0h18v15H0z"/></clipPath></defs></svg>