<svg width="18" height="13" fill="none" xmlns="http://www.w3.org/2000/svg"><path opacity=".5" d="M17.613 2.048c.188.912.296 1.838.325 2.77.041 1.03.062 1.593.062 1.69 0 .096-.02.66-.062 1.69a16.316 16.316 0 0 1-.325 2.77 2.55 2.55 0 0 1-.587 1.037 2.106 2.106 0 0 1-1.012.602c-1.332.218-2.678.33-4.027.333-1.783.042-2.78.063-2.99.063-.212 0-1.209-.021-2.992-.063a25.259 25.259 0 0 1-4.026-.333 2.105 2.105 0 0 1-1.013-.602 2.55 2.55 0 0 1-.579-1.038 16.314 16.314 0 0 1-.326-2.769C.02 7.168 0 6.604 0 6.508c0-.097.02-.66.062-1.69.03-.932.138-1.858.325-2.77.11-.39.311-.747.588-1.038.277-.289.628-.494 1.012-.593a23.52 23.52 0 0 1 4.026-.35C7.797.023 8.793.002 9.005.002c.21 0 1.208.021 2.99.063a23.52 23.52 0 0 1 4.027.351c.385.099.735.304 1.013.593.275.292.476.648.584 1.038h-.006ZM7.157 9.241l4.704-2.736-4.704-2.748V9.24Z" fill="#0C2050"/></svg>