<svg width="1042" height="454" fill="none" xmlns="http://www.w3.org/2000/svg"><path d="M828.584 236.281c-7.464 3.656-7.464 3.656-2.182 6.286-1.016 2.775-7.614 5.781-5.607 8.516a197.219 197.219 0 0 0-11.833 7.903c-5.586 4.377-14.128 6.234-21.927 8.374-5.274 1.453-10.649 2.987-16.083 4.272-6.36 1.503-12.604 3.395-18.959 4.906-5.761 1.368-11.606 2.473-17.414 3.638-1.628.412-3.296.618-4.808.593-1.425-.186-3.065-.171-4.782.044a24.848 24.848 0 0 0-5.077 1.191c-7.196 2.212-13.798 1.527-20.479 2-6.296.163-12.18-.226-17.4-1.151-2.101-.257-6.638-.752-.478-3.188.436-.172-.428-1.237-.46-1.934-.033-.696-.234-1.992.388-2.207 7.333-2.509 4.818-3.429 1.687-5.041-4.619-2.369-2.97-3.497 3.823-8.493 4.138-3.04 7.646-6.323 14.339-7.799 18.151-3.981 36.308-8.083 53.863-7.572 3.504.238 7.355.089 11.33-.438a70.063 70.063 0 0 0 11.823-2.635c6.871-2.356 14.647-3.694 20.607-7.158 1.801-1.043 4.967-1.678 7.562-2.403 5.372-1.556 11.033-2.228 15.862-1.885 5.449.336 4.261 2.796 6.191 4.176M1019.78 147.452c1.7 1.38 3.19 2.464 4.43 3.638.39.478.55 1.024.47 1.611.01 1.622-5.4 2.394-5.22 4.22.26 1.436-.2 3.01-1.35 4.611-1.05 1.272-5.65 2.937-5.45 3.674.45 1.642.13 2.583-3.83 3.7-.73.208-1.26 1.126-1.57 1.698-2.33 4.231-2.33 4.228-11.727 5.916l4.353 1.417c-3.148.436-6.272.77-9.35.999-3.238.079-6.383.029-9.409-.15-3.031-.321-6.483-.219-10.058.297l10.544 1.422-.619.667c-2.135.026-4.227-.005-6.269-.092-10.087-.683-19.898-1.665-30.229-2.066-8.958-.147-16.302-1.927-20.803-5.042 2.837-.907 6.531-1.695 3.388-3.185-3.435-1.629-.998-3.669 3.858-6.188-4.698-.812-10.559-1.444-3.877-6.022l12.83.917 1.292-.92-11.035-3.214c4.676-1.93 9.097-3.466 14.144-2.739 1.41.2 4.034-.654 6.024-.846 8.666-.834 8.654-.803 12.212-4.157.683-.641 1.29-1.284 1.937-1.927l1.771-1.761c4.578-1.419 8.879-2.683 13.077-4.068 8.557-2.587 17.658-3.82 25.586-3.467 4.1.009 7.6.746 11.71.72 3.82.157 6.78 1.103 8.26 2.641 3.75 2.519 2.77 3.675-5.11 7.694M685.144 473.138c-.592-2.931-1.294-5.766-1.553-8.687-.026-.281 2.616-1.1 4.902-2.024-1.358-.625-2.57-1.322-3.625-2.085a18.239 18.239 0 0 1-2.202-2.998c-1.511-2.016-3.457-3.997 4.158-6.266.581-.175.812-.815 1.306-1.223 3.529-2.913 5.009-5.827 12.218-8.493a286.754 286.754 0 0 1 17.673-6.971 151.515 151.515 0 0 1 18.448-4.851c9.854-2.199 19.719-2.878 28.017-1.93 2.142.639 4.006 1.441 5.552 2.391l-9.655 3.495c5.087 1.47 12.403 1.771 14.64 5.324l-9.204 3.569 8.237.594c-1.969 4.085-4.881 8.225-8.676 12.335-2.272 2.204-5.88 4.218-10.162 5.672a158.812 158.812 0 0 1-15.864 5.188c-5.291 1.155-10.469 2.881-15.956 4.088a356.87 356.87 0 0 1-26.204 3.58c-4.395.203-8.489-.037-12.05-.708M580.723 195.953l-24.492-1.76c5.108 1.39 11.023 2.233 17.504 2.494 2.48.206 6.246-.225 6.041 1.582-.018 1.833-.654 3.766-1.885 5.731-.484.667-4.461 1.694-6.637 1.934-2.468.067-4.785-.073-6.863-.412-.266 1.111.026 1.802-.646 2.354-1.394 1.143-4.918 2.599-4.729 3.248 1.064 3.615-5.419 7.028-8.49 10.466-.879.887-2.106 1.738-3.591 2.49-1.485.751-3.189 1.384-4.986 1.85-7.363 1.419-12.725 4.965-21.17 6.419-3.581-.278-7.749.133-11.82 1.165a60.397 60.397 0 0 1-11.084 2.114c-3.669.342-7.144.296-10.194-.133a116.347 116.347 0 0 0-10.752-.829c-.285-4.665-.258-9.497-.959-14.175-.721-4.896 6.915-8.757 14.38-12.345 5.453-2.616 10.457-6.297 18.46-6.747 11.346-5.9 24.344-6.162 36.669-8.868 7.75-1.275 15.345-1.76 22.264-1.422 5.803-.148 9.841 2.372 14.664 3.702l-1.684 1.142M361.106 291.806l24.802-7.681c4.447.181 8.739.528 12.845 1.039 1.534.245 1.88 1.696 1.862 2.755.001.402-2.534 1.242-3.957 1.909 2.405 1.176 6.381 2.047 2.096 5.131-.921.586-1.463 1.244-1.521 1.845.684.749.887 1.648.593 2.618-.294.969-1.078 1.981-2.282 2.947-4.787 3.667-10.895 7.052-17.877 9.909-14.256 5.271-29.734 9.168-45.126 11.363-9.385 1.2-18.642 1.968-27.643 2.294-2.306.073-4.35-.188-5.899-.755-1.549-.566-2.538-1.415-2.855-2.447-.957-3.982-2.409-7.868-3.051-11.921-.243-1.464.555-3.113 2.284-4.718 4.585-4.471 11.819-8.586 20.467-11.642 8.649-3.056 18.173-4.864 26.947-5.115 3.277-.477 6.482-.674 9.459-.58 3.316.801 6.284 1.824 8.853 3.052M579.89 102.787c2.635-1.955 6.276-3.659 10.361-4.85 4.085-1.19 8.389-1.802 12.248-1.74 8.679-.513 17.064-.53 24.993-.05 10.086 1.18 20.659 1.926 31.629 2.23 5.296.154 7.245 2.224 12.047 2.521 1.256.089 2.682 1.197 2.187 1.641-3.854 3.438 1.286 5.56-2.34 9.192-2.403 2.402-.734 5.082-.902 7.963-7.497 2.313-7.254 8.393-20.039 9.784-6.036-1.941-16.136 1.104-24.98 1.752-1.235.09-2.812.638-3.824.574-12.092-.802-24.108-1.68-37.187-2.612l7.059-2.385c-3.176.145-5.321-.064-6.559.416-1.238.48-1.691 1.769-2.992 2.538-.587.348-2.532.421-3.65.382-.517-.014-1.008-.688-.71-.897 2.221-1.586 4.643-3.133 7.206-4.832l-10.022-4.401 4.609-3.985c-5.437 1.665-4.469-.627-5.816-1.573a43.425 43.425 0 0 0-4.764-2.522c5.098-4.17 11.63-5.394 19.311-6.05l-7.883-3.078M221.51 485.879l2.771-4.036-6.977 1.204-7.68-10.807a14.213 14.213 0 0 0 1.808-1.794c4.897-7.432 17.204-11.738 30.255-15.126a283.21 283.21 0 0 1 31.205-6.301c6.895-1.309 13.599-1.425 18.813-.324l-30.505 4.399-.452 1.09a49.206 49.206 0 0 0 4.946-.183c6.975-.908 13.99-2.009 20.94-2.839 3.073-.368 7.397-1.321 5.551 1.758-.569.95 2.49 1.748 3.911 2.604 1.249.75 2.543 1.483 3.558 2.081-2.547 3.061-7.363 2.75-11.235 4.494l11.453-.742 1.521 3.917c-2.29.712-5.72 1.626-2.416 2.938 3.56 1.424 3.754 3.165-1.917 5.538-.516.217-1.227.692-1.15.866 1.458 3.343-4.835 4.8-9.67 5.953-11.566 2.357-23.16 4.018-34.474 4.942-2.683.312-8.892.967-5.678-2.494.195-.193-1.613-.473-2.5-.729-1.036.695-3.147 1.724-2.927 2.033.329.226.434.535.299.876-.136.341-.506.694-1.048 1.001-.542.307-1.225.551-1.937.69-.712.14-1.412.167-1.984.078-3.761-1.512-11.237.836-14.505-1.096M856.871 339.759l-5.659 5.746c-2.188 2.221-3.903 4.673-10.09 4.769a7.131 7.131 0 0 0-1.567.455c-.483.206-.893.454-1.192.72-1.899 2.682-6.971 3.042-10.495 4.512-9.544 3.979-18.831 3.99-27.911 4.507-5.156.291-7.631-.78-7.844-3.944-.243-3.548 1.624-7.83-2.456-10.553 1.899-2.002-2.018-4.039 4.702-6.047 1.088-.426 1.961-.989 2.453-1.582 7.473-7.878 20.298-12.21 35-15.548 7.336-2.089 14.913-3.544 22.298-4.284 3.06-.127 6.048-.139 8.94-.035.949.031 2.228.451 2.094.84-1.103 3.295 1.394 5.952.329 9.153-1.226 3.722-4.168 7.585-8.602 11.291M189.322 255.093l-11.405 2.371c3.726.589 4.986.803 6.283.988 4.303.606 4.304.599 1.669 3.853-.327.408-1.025 1.021-.78 1.19 1.256.721 1.742 1.75 1.376 2.91-.367 1.16-1.564 2.377-3.385 3.442-3.895 2.609-8.583 4.993-13.792 7.013-19.891 6.607-41.154 11.083-61.735 12.995-3.624.103-7.017-.109-10.037-.627l2.953-2.413c-4.333-.136-6.863-.873-5.14-3.633.168-.505.08-.975-.26-1.37-.338-.394-.915-.701-1.682-.894-4.721-.629.566-3.299-1.037-4.477 6.14-1.26 3.354-4.364 8.412-5.928 4.825-1.486 9.572-3.65 14.356-4.515a330.316 330.316 0 0 1 31.534-4.525c2.204-.1 4.517-.424 6.804-.953a37.634 37.634 0 0 0 6.505-2.125c6.096-2.858 13.259-4.989 20.465-6.089 6.228-.91 6.237-.97 8.896 2.787M287.219 381.514c1.43.015 2.776.131 4.001.345.796.204.541 1.142 1.358 1.288.817.146 2.629-.398 3.711-.32.944.069 1.367.892 2.207.796a22.078 22.078 0 0 0 4.821-1.229c1.126-.564 2.111-1.188 2.912-1.845-2.821.217-5.097.39-7.39.568 4.644-2.063 9.038-4.405 13.775-2.884l-5.172 2.776c6.63.866 6.625-3.039 11.339-4.204-2.475 2.022-1.311 3.574-3.851 5.605-1.192.956 1.216 2.448 2.239 4.097l-17.139 6.257 6.671 1.205-6.003 9.482c-5.276 1.357-9.86 2.36-14.259 3.683-3.811 1.15-7.282 2.856-11.108 3.953-10.679 2.744-21.609 4.422-31.98 4.911-3.748.299-9.42.518-6.86-2.989-5.905-.427-3.339-3.965-5.515-5.809-1.159-1.292-1.157-2.933.006-4.65 1.164-1.716 3.417-3.403 6.385-4.779 9.617-4.846 20.775-8.813 32.445-11.536 5.625-1.526 11.254-3.288 17.401-4.721M39.864 454.567l-5.277 3.104c9.746.947 18.29-4.542 28.278-4.681a46.387 46.387 0 0 1-5.09 2.607 213.357 213.357 0 0 1-9.4 2.947c3.736.122 7.977-.473 11.963-1.679 4.08 4.001 4.08 4.001-.008 8.05a171.984 171.984 0 0 0-20.83 6.032c-6.696 2.912-13.613 3.418-20.241 5.43A158.33 158.33 0 0 1-.919 480.51c-3.82.714-7.573.907-10.79.556-3.476-.61-8.18-1.907-7.76-3.472.686-2.577-3.008-2.25-4.931-3.215-1.568-.575-2.647-1.397-3.146-2.395-.499-.998-.401-2.142.284-3.332 1.104-1.582.823-3.576 2.894-4.648 4.988-2.7 10.696-5.081 16.816-7.012a636.172 636.172 0 0 1 34.646-8.911c2.901-.665 6.165-.02 10.53.026l-6.083 2.207c6.54-.047 5.668 3.019 8.33 4.254M502.682 435.045c-2.467 2.18-1.948 3.846-6.575 5.673l.982-2.685c-5.377.423-10.804.935-16.107 1.216-1.346.073-3.371-.447-3.258-.94.608-2.688-3.58-3.836-4.314-6.029-.095-1.098.436-2.301 1.54-3.497.469-.588 2.727-1.158 3.202-1.745.331-.792.363-1.552.096-2.241 8.089-.596 8.312-.52 15.3-4.651 4.187-2.473 9.304-2.683 14.008-4.296l-3.55-1.593c1.89-.571 4.092-1.586 5.19-1.508 13.695 1.017 14.011 1.033 25.722-1.855-4.238-2.406-11.599 1.094-17.872.863 1.193-.91 2.379-2.302 3.273-2.425 8.788-1.116 18.059-3.119 24.065.05 1.873.982 3.123 1.227 1.397 3.011-.934 1.196-1.265 2.375-.963 3.422.347 2.738 1.039 5.405 1.646 8.353l-3.903.865c-4.826 1.944.165 4.69-7.703 4.507-2.24-.051.205 2.969-5.4 2.567-2.161-.155-6.54 1.895-9.655 2.862l-4.255-1.552-2.136.861 4.387 2.257c-4.641.89-7.334 1.411-10.861 2.091l-4.256-3.581ZM219.12 200.222l12.88-3.284-4.363-2.052c4.349-2.103 9.387-3.783 14.601-4.868 11.004-2.541 22.123-4.322 33.191-6.907 3.438-.703 6.874-1.07 10.077-1.078 3.204-.009 6.101.343 8.499 1.031-1.855 2.985-8.644 3.176-12.632 5.489l11.19.803-9.769 13.288a162.958 162.958 0 0 1-31.917 7.39c-6.012.779-12.007 2.857-18.329 3.165-2.49.122-3.881-1.664-7.484.169a21.826 21.826 0 0 1-2.104-.789c5.216-3.012-1.968-4.671 2.407-7.616.287-.191-1.291-.879-2.148-1.265a26.65 26.65 0 0 1-3.007-1.175c-.577-.702-.949-1.468-1.108-2.284M14.824 135.834 3.53 138.315c1.323.401 1.982.855 2.93.84 4.652-.138 9.387-.399 14.75-.668l-3.776 3.752-7.187 1.102 9.53.681c-.37.643-.574 1.276-.605 1.882.343 1.094 1.803 2.903 1.399 3.049-4.092 1.465-4.65 3.59-7.358 5.108-1.81 1.222-4.214 2.26-6.848 2.96-2.635.7-5.359 1.023-7.763.92-1.636-.116-2.236-1.454-3.776-1.371-1.266.066-3.18 1.705-4.941 2.111-.879.157-1.742.213-2.514.161-.77-.051-1.424-.207-1.902-.455-.731-1.835-4.225-1.7-7.261-1.795-1.658.042-3.03-.249-3.822-.813-.792-.564-.944-1.356-.422-2.208.942-1.986-.825-2.594-3.733-3.233-2.092-.339-3.49-1.142-3.9-2.241-.41-1.099.198-2.408 1.698-3.653 1.17-1.037 2.106-2.096 2.783-3.15 1.565-2.637 5.938-5.791 10.132-6.34 10.27-1.366 20.956-3.634 30.198-2.41 3.599.478 3.406 1.823 3.682 3.29ZM147.54 344.746l-7.887 5.006c1.077.656 2.739 1.017 4.727 1.027 1.987.009 4.189-.332 6.26-.972 1.385 2.463-5.464 3.542-7.028 5.747 1.77.34 3.608.705 5.399 1.068 1.552 1.926-5.928 3.022-5.149 5.271.779 2.249-5.939 2.378-8.419 4.106-1.836 1.022-4.084 1.848-6.445 2.369-7.518 1.989-15.193 1.826-22.867 4.683-1.833.684-5.138.011-8.62-.06 6.593-3.304-3.178-4.24 2.556-7.46-1.982-1.263-8.427-.673-5.274-4.552l7.817-1.516-4.15-1.926c1.218-2.206 5.49-2.949 8.283-3.501 9.058-1.763 17.908-4.546 25.712-8.085a21.738 21.738 0 0 1 3.974-1.497 23.881 23.881 0 0 1 4.313-.761c1.418-.113 2.755-.078 3.925.103s2.148.505 2.873.95M533.748 361.867l-3.317-8.928 5.379-5.366c7.536-1.7 15.37-1.865 22.952-4.624 7.883.223 15.506-2.35 23.305-4.483 2.505-.699 5.538-.308 8.998-.413-.462.955-1.415 1.867-1.077 2.392 3.333 5.504-5.955 9.806-15.51 13.292-8.375 2.963-17.192 5.409-26.137 7.25-5.054.715-9.993 1.012-14.599.88" fill="#E5F1F3"/></svg>