<svg width="40" height="51" fill="none" xmlns="http://www.w3.org/2000/svg"><path d="M6.745 32.93c-3.06-3.826-4.594-8.093-4.603-12.799 0-4.985 1.76-9.233 5.28-12.745 3.466-3.422 7.654-5.173 12.564-5.254 4.901.054 9.099 1.805 12.592 5.254 3.52 3.503 5.28 7.751 5.28 12.745 0 4.715-1.543 8.982-4.63 12.799L26.35 41.12s-1.056.323-1.625-.27c-.244-.242-9.83-12.475-9.83-12.475" stroke="#35B8BE" stroke-width="5" stroke-miterlimit="3" stroke-linecap="square"/><path d="M13.758 27.002a4.71 4.71 0 0 1-1.083-1.778 4.816 4.816 0 0 1-.216-2.075c.081-1.482.677-2.694 1.814-3.665 1.11-.943 2.383-1.32 3.818-1.185.866.054 1.625.27 2.302.727a4.84 4.84 0 0 1 1.3 1.051l5.74 6.602" stroke="#35B8BE" stroke-width="5" stroke-miterlimit="3" stroke-linecap="round" stroke-linejoin="round"/><path d="M20.013 47.992 6.745 32.93m18.738 9.269L13.758 27.002l11.725 15.197Z" stroke="#35B8BE" stroke-width="5" stroke-miterlimit="3" stroke-linecap="round"/></svg>