<svg width="329" height="48" viewBox="0 0 329 48" fill="none" xmlns="http://www.w3.org/2000/svg">
<g opacity="0.2">
<path opacity="0.2" fill-rule="evenodd" clip-rule="evenodd" d="M94.6605 -33.325C101.277 -28.5403 102.419 -18.5035 105.169 -10.1687C107.728 -2.41961 110.32 5.13181 110.09 13.4089C109.819 23.1491 110.622 35.1728 103.742 41.0211C96.812 46.9174 87.0547 39.945 78.4046 40.3597C70.5752 40.7293 62.1004 48.3046 55.6187 43.3213C49.0675 38.2832 52.2245 26.3936 49.3674 18.0196C46.7322 10.2992 38.9189 4.69684 39.6262 -3.54764C40.3437 -11.9121 47.2549 -17.5521 52.8861 -23.028C58.3818 -28.3694 64.4188 -32.768 71.4909 -34.5142C79.2364 -36.4169 87.9789 -38.1451 94.6605 -33.325Z" stroke="white"/>
<path opacity="0.2" fill-rule="evenodd" clip-rule="evenodd" d="M104.981 -57.7141C115.669 -49.9919 117.534 -33.817 121.993 -20.3876C126.143 -7.88836 130.341 4.27333 129.987 17.6154C129.57 33.3056 130.896 52.6746 119.805 62.0768C108.633 71.5549 92.8749 60.2971 78.9103 60.9335C66.2747 61.5172 52.6134 73.6964 42.1386 65.6459C31.5504 57.5128 36.6226 38.3618 31.9917 24.8632C27.7217 12.4207 15.1014 3.37755 16.2237 -9.90021C17.363 -23.3796 28.5061 -32.4528 37.5815 -41.2493C46.44 -49.8394 56.1727 -56.9134 67.5817 -59.6983C80.0818 -62.7521 94.1836 -65.5132 104.981 -57.7141Z" stroke="white"/>
<path opacity="0.2" fill-rule="evenodd" clip-rule="evenodd" d="M114.98 -81.3396C129.614 -70.7691 132.175 -48.6535 138.291 -30.282C143.979 -13.194 149.736 3.45713 149.263 21.6818C148.706 43.1522 150.533 69.6262 135.365 82.4777C120.085 95.4243 98.5096 80.0153 79.4008 80.8793C62.1089 81.6578 43.4245 98.2965 29.0855 87.2796C14.5923 76.1378 21.5119 49.9653 15.1649 31.5035C9.31173 14.4788 -7.9674 2.09872 -6.44269 -16.0578C-4.89512 -34.4898 10.3451 -46.8737 22.7579 -58.9006C34.8709 -70.6347 48.1883 -80.2982 63.8005 -84.0931C80.8975 -88.2604 100.203 -92.0129 114.98 -81.3396Z" stroke="white"/>
<path opacity="0.2" fill-rule="evenodd" clip-rule="evenodd" d="M124.011 -102.688C142.208 -89.5429 145.404 -62.0628 153.012 -39.2321C160.091 -17.9806 167.255 2.70379 166.674 25.3598C165.991 52.0324 168.276 84.9308 149.42 100.896C130.428 116.977 103.6 97.8146 79.8438 98.8706C58.3454 99.8306 35.1233 120.504 17.2902 106.802C-0.732709 92.9533 7.86073 60.4341 -0.0380971 37.4901C-7.3228 16.3298 -28.8076 0.935518 -26.9195 -21.6226C-25.0035 -44.5195 -6.06069 -59.9115 9.36594 -74.8482C24.4233 -89.4258 40.9722 -101.427 60.38 -106.137C81.6378 -111.307 105.634 -115.964 124.011 -102.688Z" stroke="white"/>
<path opacity="0.2" fill-rule="evenodd" clip-rule="evenodd" d="M132.396 -122.504C153.902 -106.971 157.688 -74.5043 166.682 -47.5283C175.051 -22.4291 183.522 2.00771 182.841 28.7716C182.04 60.2797 184.749 99.1561 162.472 118.004C140.033 136.998 108.327 114.349 80.2546 115.604C54.8513 116.728 27.4159 141.14 6.34024 124.942C-14.9599 108.577 -4.81382 70.1632 -14.1526 43.0586C-22.763 18.0563 -48.1578 -0.136073 -45.9318 -26.7838C-43.6718 -53.8394 -21.2925 -72.0168 -3.07057 -89.652C14.7177 -106.87 34.2712 -121.044 57.2036 -126.601C82.3231 -132.692 110.679 -138.189 132.396 -122.504Z" stroke="white"/>
<path opacity="0.2" fill-rule="evenodd" clip-rule="evenodd" d="M141.104 -143.086C166.046 -125.075 170.44 -87.43 180.876 -56.1532C190.587 -27.0547 200.412 1.28483 199.626 32.3139C198.707 68.8515 201.855 113.914 176.024 135.771C150.007 157.786 113.235 131.516 80.6807 132.956C51.2225 134.255 19.4112 162.556 -5.03154 143.77C-29.7343 124.792 -17.9763 80.2541 -28.811 48.8257C-38.8021 19.8413 -68.2535 -1.26131 -65.6767 -32.157C-63.0618 -63.5173 -37.1113 -84.5922 -15.9806 -105.036C4.64696 -124.989 27.3159 -141.42 53.9085 -147.858C83.0372 -154.913 115.917 -161.283 141.104 -143.086Z" stroke="white"/>
<path opacity="0.2" fill-rule="evenodd" clip-rule="evenodd" d="M151.746 -168.247C180.885 -147.196 186.028 -103.225 198.223 -66.6909C209.573 -32.6963 221.057 0.405954 220.146 36.6469C219.075 79.3199 222.761 131.962 192.586 157.488C162.197 183.19 119.23 152.506 81.2024 154.178C46.7872 155.691 9.62595 188.732 -18.9309 166.793C-47.7936 144.617 -34.0637 92.6 -46.7263 55.8877C-58.4039 22.0256 -92.8131 -2.61898 -89.8077 -38.714C-86.7583 -75.3438 -56.4438 -99.9521 -31.7613 -123.826C-7.66761 -147.13 18.8149 -166.31 49.8816 -173.834C83.9071 -182.071 122.319 -189.497 151.746 -168.247Z" stroke="white"/>
<path opacity="0.2" fill-rule="evenodd" clip-rule="evenodd" d="M163.358 -195.686C197.08 -171.336 203.035 -120.458 217.151 -78.1877C230.286 -38.8537 243.579 -0.551693 242.532 41.3773C241.295 90.7501 245.568 151.651 210.658 181.172C175.496 210.906 125.776 175.394 81.7717 177.332C41.9506 179.072 -1.04275 217.302 -34.0924 191.91C-67.492 166.252 -51.613 106.073 -66.2697 63.588C-79.7862 24.4143 -119.606 -4.11233 -116.133 -45.8637C-112.608 -88.2477 -77.5372 -116.707 -48.9769 -144.329C-21.0994 -171.286 9.5404 -193.471 45.4862 -202.165C84.8575 -211.691 129.303 -220.28 163.358 -195.686Z" stroke="white"/>
<path opacity="0.2" fill-rule="evenodd" clip-rule="evenodd" d="M174.646 -222.371C212.823 -194.8 219.568 -137.21 235.549 -89.3652C250.424 -44.8424 265.478 -1.4878 264.294 45.9746C262.899 101.847 267.738 170.789 228.226 204.203C188.424 237.851 132.138 197.648 82.3239 199.827C37.2451 201.801 -11.4201 245.059 -48.8347 216.321C-86.6465 187.271 -68.6761 119.154 -85.2717 71.0729C-100.576 26.7353 -145.655 -5.55736 -141.73 -52.8201C-137.744 -100.786 -98.0462 -132.999 -65.7199 -164.261C-34.1653 -194.775 0.52006 -219.881 41.2085 -229.717C85.7808 -240.493 136.094 -250.211 174.646 -222.371Z" stroke="white"/>
<path opacity="0.2" fill-rule="evenodd" clip-rule="evenodd" d="M184.966 -246.76C227.218 -216.255 234.689 -152.531 252.375 -99.5919C268.837 -50.3238 285.501 -2.3535 284.192 50.1681C282.653 112.001 288.013 188.286 244.29 225.253C200.243 262.488 137.956 217.996 82.8305 220.408C32.9455 222.579 -20.9054 270.454 -62.3114 238.641C-104.156 206.493 -84.2747 131.121 -102.644 77.9148C-119.585 28.8454 -169.47 -6.88829 -165.128 -59.1833C-160.723 -112.264 -116.792 -147.901 -81.0203 -182.492C-46.1037 -216.249 -7.72433 -244.028 37.3045 -254.908C86.6262 -266.829 142.302 -277.575 184.966 -246.76Z" stroke="white"/>
<path opacity="0.2" fill-rule="evenodd" clip-rule="evenodd" d="M195.931 -272.684C242.51 -239.047 250.743 -168.812 270.25 -110.444C288.402 -56.1297 306.771 -3.25118 305.331 54.6445C303.637 122.794 309.555 206.881 261.353 247.626C212.806 288.665 144.136 239.622 83.3692 242.268C28.3773 244.668 -30.9837 297.426 -76.63 262.359C-122.761 226.921 -100.848 143.844 -121.101 85.1911C-139.777 31.1056 -194.773 -8.28836 -189.989 -65.9325C-185.134 -124.447 -136.709 -163.726 -97.2788 -201.852C-58.7893 -239.064 -16.4829 -269.682 33.1556 -281.67C87.5232 -294.803 148.899 -306.651 195.931 -272.684Z" stroke="white"/>
<path opacity="0.2" fill-rule="evenodd" clip-rule="evenodd" d="M207.865 -300.89C259.153 -263.846 268.225 -186.522 289.704 -122.261C309.695 -62.4705 329.92 -4.24488 328.341 59.4924C326.478 134.529 333 227.109 279.928 271.966C226.479 317.148 150.864 263.15 83.9537 266.061C23.4042 268.693 -41.9531 326.781 -92.2142 288.166C-143.009 249.146 -118.886 157.681 -141.188 93.1013C-161.754 33.5506 -222.31 -9.83196 -217.046 -73.2928C-211.703 -137.709 -158.388 -180.955 -114.976 -222.926C-72.598 -263.893 -26.0183 -297.596 28.6356 -310.797C88.499 -325.252 156.077 -338.285 207.865 -300.89Z" stroke="white"/>
</g>
</svg>
