<svg width="496" height="48" viewBox="0 0 496 48" fill="none" xmlns="http://www.w3.org/2000/svg">
<g opacity="0.2">
<path opacity="0.2" fill-rule="evenodd" clip-rule="evenodd" d="M359.269 58.5143C384.211 76.5248 388.605 114.17 399.041 145.447C408.751 174.545 418.576 202.885 417.791 233.914C416.872 270.452 420.02 315.514 394.189 337.371C368.172 359.386 331.4 333.116 298.845 334.556C269.387 335.855 237.576 364.156 213.133 345.37C188.43 326.392 200.188 281.854 189.354 250.426C179.363 221.441 149.911 200.339 152.488 169.443C155.103 138.083 181.053 117.008 202.184 96.5636C222.812 76.611 245.481 60.1797 272.073 53.7419C301.202 46.6869 334.082 40.3175 359.269 58.5143Z" stroke="white"/>
<path opacity="0.2" fill-rule="evenodd" clip-rule="evenodd" d="M369.911 33.3535C399.05 54.4044 404.192 98.3753 416.387 134.909C427.738 168.904 439.222 202.006 438.311 238.247C437.24 280.92 440.926 333.562 410.75 359.088C380.362 384.79 337.395 354.106 299.367 355.778C264.952 357.291 227.791 390.332 199.234 368.393C170.371 346.217 184.101 294.2 171.438 257.488C159.761 223.626 125.352 198.981 128.357 162.886C131.406 126.256 161.721 101.648 186.403 77.7736C210.497 54.4696 236.98 35.2895 268.046 27.766C302.072 19.5292 340.484 12.1029 369.911 33.3535Z" stroke="white"/>
<path opacity="0.2" fill-rule="evenodd" clip-rule="evenodd" d="M381.522 5.91398C415.245 30.2644 421.2 81.1425 435.316 123.412C448.45 162.746 461.744 201.048 460.697 242.977C459.46 292.35 463.733 353.251 428.822 382.772C393.661 412.506 343.941 376.994 299.936 378.932C260.115 380.672 217.122 418.902 184.072 393.51C150.673 367.852 166.552 307.673 151.895 265.188C138.379 226.014 98.5592 197.488 102.032 155.736C105.557 113.352 140.628 84.8932 169.188 57.2712C197.065 30.3144 227.705 8.12867 263.651 -0.565086C303.022 -10.0912 347.467 -18.6803 381.522 5.91398Z" stroke="white"/>
<path opacity="0.2" fill-rule="evenodd" clip-rule="evenodd" d="M392.81 -20.7712C430.988 6.80004 437.733 64.3903 453.714 112.235C468.588 156.758 483.643 200.112 482.459 247.575C481.064 303.447 485.903 372.389 446.391 405.803C406.589 439.451 350.302 399.248 300.489 401.427C255.41 403.401 206.745 446.659 169.33 417.921C131.518 388.871 149.489 320.754 132.893 272.673C117.588 228.335 72.5095 196.043 76.4347 148.78C80.4202 100.814 120.118 68.6007 152.445 37.3393C183.999 6.82475 218.685 -18.2813 259.373 -28.1174C303.945 -38.8934 354.259 -48.6112 392.81 -20.7712Z" stroke="white"/>
<path opacity="0.2" fill-rule="evenodd" clip-rule="evenodd" d="M403.131 -45.1597C445.383 -14.6548 452.853 49.0689 470.54 102.008C487.002 151.276 503.666 199.246 502.356 251.768C500.818 313.601 506.177 389.886 462.455 426.853C418.408 464.088 356.121 419.596 300.995 422.008C251.11 424.179 197.259 472.054 155.853 440.241C114.009 408.093 133.89 332.721 115.521 279.515C98.5795 230.445 48.6945 194.712 53.0365 142.417C57.4412 89.3363 101.373 53.699 137.144 19.1082C172.061 -14.6492 210.44 -42.4279 255.469 -53.3075C304.791 -65.2288 360.467 -75.9748 403.131 -45.1597Z" stroke="white"/>
<path opacity="0.2" fill-rule="evenodd" clip-rule="evenodd" d="M414.095 -71.0836C460.674 -37.4472 468.908 32.7884 488.415 91.1564C506.567 145.47 524.935 198.349 523.495 256.244C521.801 324.394 527.72 408.481 479.518 449.226C430.97 490.265 362.301 441.222 301.534 443.868C246.542 446.268 187.181 499.026 141.535 463.959C95.4039 428.521 117.316 345.444 97.0641 286.791C78.3882 232.706 23.392 193.312 28.1754 135.667C33.0307 77.1526 81.4554 37.8742 120.886 -0.252232C159.375 -37.4638 201.682 -68.0816 251.32 -80.0701C305.688 -93.2029 367.064 -105.051 414.095 -71.0836Z" stroke="white"/>
<path opacity="0.2" fill-rule="evenodd" clip-rule="evenodd" d="M426.03 -99.2897C477.317 -62.2461 486.389 15.0783 507.869 79.3388C527.86 139.13 548.085 197.355 546.506 261.092C544.642 336.129 551.165 428.709 498.093 473.566C444.644 518.748 369.028 464.75 302.118 467.661C241.569 470.293 176.212 528.381 125.95 489.766C75.1557 450.746 99.2791 359.281 76.9769 294.701C56.4103 235.151 -4.14509 191.768 1.11853 128.307C6.46178 63.8912 59.7765 20.645 103.189 -21.3262C145.567 -62.2933 192.146 -95.9957 246.8 -109.197C306.664 -123.652 374.242 -136.686 426.03 -99.2897Z" stroke="white"/>
</g>
</svg>
