<svg width="55" height="55" viewBox="0 0 55 55" fill="none" xmlns="http://www.w3.org/2000/svg">
<g clip-path="url(#clip0_2_973)">
<path d="M0 4C0 1.79086 1.79086 0 4 0H51C53.2091 0 55 1.79086 55 4V51C55 53.2091 53.2091 55 51 55H4C1.79086 55 0 53.2091 0 51V4Z" fill="#35B8BE"/>
<g opacity="0.2">
<path opacity="0.2" fill-rule="evenodd" clip-rule="evenodd" d="M-0.717149 -52.2939C0.923638 -48.8601 1.2112 -41.6773 1.89661 -35.7098C2.53427 -30.1585 3.18087 -24.751 3.12671 -18.8311C3.06417 -11.8571 3.26938 -3.25789 1.56857 0.915692C-0.144531 5.12136 -2.56341 0.115517 -4.70617 0.396934C-6.64485 0.649934 -8.73989 6.05466 -10.3477 2.476C-11.9726 -1.14301 -11.1967 -9.64432 -11.9084 -15.6412C-12.5648 -21.1714 -14.502 -25.1919 -14.3309 -31.0898C-14.1572 -37.0756 -12.4486 -41.099 -11.0569 -45.0058C-9.69833 -48.8173 -8.20552 -51.9558 -6.45529 -53.1887C-4.53811 -54.5408 -2.37385 -55.7599 -0.717149 -52.2939Z" stroke="white"/>
<path opacity="0.2" fill-rule="evenodd" clip-rule="evenodd" d="M0.295392 -59.2286C2.3357 -54.9588 2.69389 -46.0288 3.54681 -38.6166C4.34054 -31.7141 5.14377 -24.9957 5.07872 -17.6358C5.00194 -8.97237 5.25823 1.71332 3.14422 6.89982C1.01485 12.1248 -1.99283 5.89858 -4.65656 6.24141C-7.06679 6.55491 -9.67051 13.2686 -11.67 8.81819C-13.6908 4.32011 -12.7273 -6.24448 -13.6129 -13.697C-14.4295 -20.572 -16.8386 -25.5704 -16.6281 -32.8973C-16.4132 -40.3342 -14.2894 -45.3336 -12.5598 -50.1855C-10.8716 -54.9201 -9.01609 -58.819 -6.8401 -60.349C-4.45556 -62.0274 -1.76501 -63.5406 0.295392 -59.2286Z" stroke="white"/>
<path opacity="0.2" fill-rule="evenodd" clip-rule="evenodd" d="M1.23685 -65.6647C3.64819 -60.623 4.07256 -50.0741 5.08098 -41.3117C6.01933 -33.1589 6.96913 -25.2204 6.89264 -16.5286C6.80274 -6.29399 7.1065 6.33322 4.60888 12.4556C2.09312 18.6248 -1.46179 11.2685 -4.60907 11.6746C-7.45679 12.0413 -10.5332 19.9687 -12.8962 14.7079C-15.2844 9.39125 -14.1467 -3.08471 -15.1939 -11.8893C-16.1593 -20.01 -19.0065 -25.9198 -18.7569 -34.575C-18.5037 -43.3631 -15.9943 -49.2672 -13.951 -54.9955C-11.9564 -60.5871 -9.76315 -65.1909 -7.19323 -66.9976C-4.37846 -68.9739 -1.19934 -70.7586 1.23685 -65.6647Z" stroke="white"/>
<path opacity="0.2" fill-rule="evenodd" clip-rule="evenodd" d="M2.21172 -72.3498C5.00806 -66.4996 5.50083 -54.2719 6.6709 -44.1162C7.75973 -34.6644 8.86112 -25.4591 8.77318 -15.3804C8.67016 -3.5123 9.02446 11.1257 6.12704 18.2234C3.21009 25.3734 -0.912954 16.842 -4.56278 17.3067C-7.86557 17.7284 -11.4322 26.9208 -14.1727 20.8194C-16.9422 14.6549 -15.6245 0.188882 -16.8387 -10.02C-17.9588 -19.4351 -21.261 -26.2888 -20.9706 -36.3281C-20.6775 -46.5141 -17.7678 -53.36 -15.3986 -60.0003C-13.0858 -66.4811 -10.5441 -71.8178 -7.56266 -73.9097C-4.29867 -76.1903 -0.612265 -78.2595 2.21172 -72.3498Z" stroke="white"/>
<path opacity="0.2" fill-rule="evenodd" clip-rule="evenodd" d="M3.40506 -80.5215C6.67156 -73.684 7.24864 -59.4016 8.61582 -47.5353C9.88836 -36.4932 11.176 -25.7419 11.0727 -13.97C10.9526 -0.109104 11.3658 16.9898 7.98262 25.281C4.57653 33.6291 -0.241693 23.6619 -4.50545 24.2055C-8.3641 24.6968 -12.5304 35.4293 -15.7324 28.3032C-18.9685 21.1009 -17.4291 4.20418 -18.8487 -7.72165C-20.1578 -18.7216 -24.0159 -26.7251 -23.6787 -38.4492C-23.3367 -50.3466 -19.9376 -58.3411 -17.1705 -66.0951C-14.4691 -73.665 -11.4999 -79.8948 -8.01679 -82.3387C-4.20085 -85.0117 0.1059 -87.424 3.40506 -80.5215Z" stroke="white"/>
<path opacity="0.2" fill-rule="evenodd" clip-rule="evenodd" d="M4.70689 -89.4342C8.48793 -81.5252 9.15547 -64.9989 10.7373 -51.269C12.2101 -38.4925 13.7006 -26.0514 13.5831 -12.4325C13.4435 3.60462 13.9234 23.386 10.0095 32.9743C6.06736 42.6323 0.492827 31.098 -4.44098 31.7269C-8.90575 32.2925 -13.7262 44.7096 -17.4316 36.4624C-21.1763 28.129 -19.396 8.58086 -21.0393 -5.21864C-22.5547 -17.9429 -27.0192 -27.2083 -26.63 -40.7695C-26.2347 -54.5369 -22.3026 -63.7779 -19.1006 -72.753C-15.9737 -81.509 -12.5397 -88.7159 -8.50931 -91.5393C-4.09451 -94.6339 0.888712 -97.423 4.70689 -89.4342Z" stroke="white"/>
<path opacity="0.2" fill-rule="evenodd" clip-rule="evenodd" d="M5.9724 -98.1026C10.2529 -89.1468 11.009 -70.4414 12.8011 -54.9002C14.4689 -40.4389 16.1566 -26.3561 16.024 -10.9396C15.8677 7.21036 16.4101 29.6021 11.9802 40.4555C7.51771 51.3849 1.20695 38.3258 -4.3782 39.0344C-9.4315 39.676 -14.8888 53.7269 -19.0836 44.3916C-23.3231 34.9563 -21.3082 12.8305 -23.1689 -2.78855C-24.8848 -17.1903 -29.939 -27.6796 -29.499 -43.0301C-29.0523 -58.6135 -24.6012 -69.0734 -20.9768 -79.2273C-17.4389 -89.1383 -13.5504 -97.2942 -8.98788 -100.489C-3.99098 -103.989 1.65001 -107.146 5.9724 -98.1026Z" stroke="white"/>
<path opacity="0.2" fill-rule="evenodd" clip-rule="evenodd" d="M7.12968 -106.027C11.8669 -96.1178 12.7039 -75.4195 14.6876 -58.2247C16.5333 -42.2215 18.4008 -26.6401 18.2548 -9.5809C18.0822 10.5033 18.683 35.2817 13.781 47.2891C8.84277 59.3836 1.85973 44.9326 -4.32177 45.7154C-9.91474 46.4212 -15.9525 61.9706 -20.5948 51.6379C-25.2852 41.1953 -23.0572 16.7128 -25.1176 -0.568203C-27.0161 -16.5072 -32.6102 -28.1141 -32.1233 -45.0999C-31.6291 -62.3415 -26.704 -73.9171 -22.6932 -85.1517C-18.7784 -96.1169 -14.4753 -105.135 -9.42672 -108.674C-3.89629 -112.543 2.34524 -116.033 7.12968 -106.027Z" stroke="white"/>
<path opacity="0.2" fill-rule="evenodd" clip-rule="evenodd" d="M8.35925 -114.445C13.5817 -103.519 14.5047 -80.706 16.6919 -61.7484C18.7272 -44.1062 20.7865 -26.9306 20.6251 -8.12339C20.4355 14.0123 21.0997 41.3251 15.6944 54.56C10.2502 67.8901 2.55215 51.9604 -4.26115 52.8184C-10.4267 53.5985 -17.082 70.7348 -22.2001 59.3443C-27.3723 47.8328 -24.9155 20.844 -27.1861 1.79748C-29.28 -15.7704 -35.4462 -28.566 -34.9098 -47.2899C-34.3654 -66.296 -28.9352 -79.0543 -24.5151 -91.4385C-20.1997 -103.526 -15.4563 -113.47 -9.89098 -117.364C-3.79519 -121.63 3.08595 -125.478 8.35925 -114.445Z" stroke="white"/>
<path opacity="0.2" fill-rule="evenodd" clip-rule="evenodd" d="M9.69651 -123.606C15.4478 -111.574 16.464 -86.458 18.8723 -65.5809C21.1133 -46.1595 23.3812 -27.2478 23.2042 -6.54764C22.9956 17.8256 23.726 47.8969 17.7762 62.4673C11.7832 77.1432 3.30562 59.6039 -4.19587 60.549C-10.9846 61.4042 -18.3124 80.272 -23.9476 67.7292C-29.643 55.0554 -26.938 25.3461 -29.4384 4.36911C-31.7442 -14.9726 -38.5337 -29.0653 -37.9435 -49.6784C-37.3444 -70.6013 -31.3667 -84.6483 -26.4991 -98.281C-21.7479 -111.588 -16.5254 -122.535 -10.3975 -126.823C-3.68636 -131.52 3.88941 -135.757 9.69651 -123.606Z" stroke="white"/>
</g>
</g>
<g clip-path="url(#clip1_2_973)">
<path d="M16.8322 21H13V19H19.4619L20.1219 23H36.5294V28.9384L18.5432 31.3694L16.8322 21ZM35.7941 36C34.5758 36 33.5882 35.3284 33.5882 34.5C33.5882 33.6716 34.5758 33 35.7941 33C37.0124 33 38 33.6716 38 34.5C38 35.3284 37.0124 36 35.7941 36ZM21.0882 36C19.87 36 18.8824 35.3284 18.8824 34.5C18.8824 33.6716 19.87 33 21.0882 33C22.3065 33 23.2941 33.6716 23.2941 34.5C23.2941 35.3284 22.3065 36 21.0882 36Z" fill="white"/>
</g>
<defs>
<clipPath id="clip0_2_973">
<path d="M0 4C0 1.79086 1.79086 0 4 0H51C53.2091 0 55 1.79086 55 4V51C55 53.2091 53.2091 55 51 55H4C1.79086 55 0 53.2091 0 51V4Z" fill="white"/>
</clipPath>
<clipPath id="clip1_2_973">
<rect width="25" height="17" fill="white" transform="translate(13 19)"/>
</clipPath>
</defs>
</svg>
