<svg width="710.984802" height="578.816406" viewBox="0 0 710.985 578.816" fill="none" xmlns="http://www.w3.org/2000/svg" xmlns:xlink="http://www.w3.org/1999/xlink">
	<desc>
			Created with Pixso.
	</desc>
	<defs/>
	<path id="Fill 351" d="M643.196 462.242C638.832 465.73 636.081 470.681 635.526 476.044C635.016 479.084 632.058 479.502 629.852 480.035C627.926 480.191 626.097 480.895 624.607 482.053C624.095 482.367 623.509 482.557 622.9 482.604C622.291 482.651 621.68 482.555 621.121 482.324C618.287 480.978 615.589 479.394 613.059 477.589C604.707 470.173 597.575 461.626 591.9 452.23C585.437 443.065 579.676 433.478 574.66 423.542C573.203 420.391 573.141 420.417 576.814 417.971C579.801 423.316 582.583 428.747 585.809 433.929C588.365 438.043 591.459 441.857 594.571 446.164C594.968 445.474 595.139 444.689 595.065 443.908C594.99 443.127 594.672 442.384 594.151 441.772C587.68 433.324 582.075 424.317 577.411 414.872L579.95 413.298L581.407 414.487L581.407 410.983L588.24 409.707C590.277 410.601 591.244 413.994 594.595 414.412C594.488 417.844 597.665 419.555 599.274 422.062C601.287 424.895 603.488 427.604 605.865 430.173C608.016 429.902 609.625 429.622 611.249 429.521C616.951 429.145 616.799 429.314 620.361 432.263C624.308 435.529 627.007 440.123 632.096 442.203C632.278 442.299 632.436 442.432 632.556 442.593C632.676 442.754 632.756 442.939 632.789 443.133C632.949 446.582 634.999 447.832 638.437 448.685C641.323 449.39 642.141 452.25 642.277 455.065C642.381 457.223 642.804 459.369 643.178 462.249L643.196 462.242Z" fill-rule="nonzero" fill="#2FACB2"/>
	<path id="Fill 353" d="M134.268 61.8076C138.35 63.731 138.35 63.731 140.546 59.7046C143.321 58.8032 146.71 60.6191 149.235 58.2026C152.038 59.0024 154.884 59.6606 157.762 60.1748C162.417 60.7759 164.82 64.165 167.45 67.0322C169.233 68.9683 171.102 70.9146 172.733 73.0171C174.641 75.4795 176.919 77.6836 178.834 80.1392C180.569 82.3657 182.053 84.769 183.593 87.1235C184.108 87.7397 184.424 88.4819 184.506 89.2622C184.423 90.0811 184.552 90.9062 184.881 91.668C185.21 92.4297 185.73 93.1055 186.396 93.6377C189.053 96.1616 188.845 99.8647 189.771 103.016C190.369 106.129 190.399 109.316 189.861 112.439C189.757 113.638 189.591 116.194 186.788 114.311C186.59 114.176 185.612 115.159 184.936 115.532C184.259 115.904 183.011 116.668 182.757 116.462C179.802 114.02 179.081 115.767 177.728 118.18C175.74 121.736 174.526 121.475 169.184 120.577C165.934 120.028 162.49 119.923 160.585 117.278C155.441 110.095 150.179 102.97 149.454 93.7944C149.442 91.8936 149.029 90.0137 148.238 88.2646C147.447 86.5156 146.295 84.9321 144.847 83.6069C142.072 81.3208 140.227 78.0557 136.436 76.7983C135.294 76.4165 134.455 75.1333 133.567 74.1865C131.677 72.2529 130.627 69.7217 130.626 67.0942C130.574 64.1553 133.054 63.5024 134.264 61.8174L134.268 61.8076Z" fill-rule="nonzero" fill="#2FACB2"/>
	<path id="Fill 355" d="M570.494 301.759C567.164 298.624 564.365 295.555 561.108 293.004C551.742 285.7 547.316 275.372 541.725 265.749C539.213 261.432 539.931 256.58 540.039 251.907C540.06 251.098 541.249 250.311 541.943 249.461L545.086 255.31L545.086 246.657C546.928 246.022 548.676 245.168 550.289 244.116C550.974 243.583 551.797 243.23 552.674 243.096C553.552 242.962 554.451 243.05 555.28 243.352C557.085 244.061 558.768 245.017 560.275 246.19C559.644 250.526 560.796 254.926 563.494 258.49C565.6 257.955 568.084 259.362 570.193 257.328C570.575 257.115 571.007 256.993 571.451 256.975C571.895 256.956 572.337 257.04 572.739 257.22C577.9 260.159 584.237 261.697 586.85 267.698C587.318 268.782 587.838 270.18 588.782 270.66C590.204 271.385 588.927 273.648 591.369 273.736C593.378 273.808 592.094 275.737 592.455 276.786C592.986 278.061 593.419 279.371 593.752 280.704C593.88 281.96 593.896 283.224 593.801 284.482C588.845 288.693 585.055 293.979 582.76 299.881L570.498 301.762L570.494 301.759Z" fill-rule="nonzero" fill="#2FACB2"/>
	<path id="Fill 357" d="M9.94434 6.37598C11.1722 4.80225 12.1262 3.49268 13.1841 2.2583C13.6243 1.81934 14.1463 1.45947 14.7242 1.19727C16.306 0.364746 17.4368 2.72217 19.2059 1.69385C20.5878 0.826172 22.1559 0.256348 23.7985 0.0249023C25.1132 -0.0922852 27.0591 1.39648 27.7632 0.916504C29.3346 -0.151367 30.2747 -0.471191 31.6414 0.972168C31.8945 1.23633 32.8276 1.03711 33.4069 0.90332C37.6978 -0.0761719 37.6943 -0.0761719 39.9976 3.84229L41.0764 0.90332C41.7218 2.28125 42.2654 3.69971 42.7032 5.14844C43.0068 6.75391 43.1772 8.37988 43.2131 10.0103C43.1116 11.7158 43.4521 13.4194 44.2051 14.9736L44.8572 8.88379L45.551 8.85791C45.7253 9.93018 45.8411 11.0103 45.8979 12.0938C45.936 17.5728 45.662 23.0649 45.9916 28.5244C46.4727 33.1558 45.248 37.8018 42.5228 41.6836C41.4406 40.7041 40.4138 39.2285 39.179 41.5889C37.8296 44.1685 35.6686 43.9727 32.8727 42.7905C32.4079 45.5957 32.1998 48.8999 27.2673 47.8423L27.2673 40.8477L26.2786 40.6616L23.913 47.9175C21.7034 46.5264 19.8962 45.0635 20.2534 42.1245C20.3506 41.3052 19.3342 40.4072 19.0082 39.4927C17.5894 35.5122 17.6207 35.5024 14.0999 35.4077C13.4269 35.3882 12.7574 35.4077 12.0845 35.4077L10.2426 35.4077C8.53949 33.8047 7.00629 32.2632 5.36212 30.8364C2.24084 27.8076 0.402771 23.8096 0.193665 19.5942C-0.0838623 17.5044 0.391357 15.3491 0.0791626 13.2725C-0.0333252 11.249 0.683044 9.26221 2.08063 7.72119C4.27637 4.52783 5.47308 4.43311 9.94434 6.38574L9.94434 6.37598Z" fill-rule="nonzero" fill="#2FACB2"/>
	<path id="Fill 359" d="M402.447 56.5244C399.579 58.3599 396.814 60.2012 393.931 61.8569C393.654 62.0166 392.651 61.0635 391.569 60.3516C391.046 61.3857 390.441 62.3809 389.759 63.3296C388.869 64.2778 387.927 65.1826 386.938 66.0396C385.045 67.8779 383.216 69.9253 380.417 67.1304C380.202 66.918 379.55 67.1304 379.109 67.0845C375.963 66.7578 372.963 67.5024 369.799 65.1255C366.936 63.438 364.2 61.5669 361.61 59.5254C359.214 57.4434 357.146 55.0498 355.47 52.417C352.581 48.4155 351.199 43.6177 351.547 38.7905C352.028 37.3398 352.691 35.9487 353.524 34.647L357.687 37.8696C358.783 34.4478 358.557 30.4707 361.925 27.4536L366.129 30.4023L366.129 25.7915C370.328 24.6934 374.648 24.0586 379.002 23.9009C381.354 23.9399 383.613 24.7759 385.364 26.2554C387.682 27.8818 389.792 29.7559 391.653 31.8389C393.179 34.0005 395.263 35.8062 396.856 38.043C399.005 41.8374 400.822 45.7905 402.288 49.8633C402.804 52.0522 402.859 54.3159 402.447 56.5244Z" fill-rule="nonzero" fill="#2FACB2"/>
	<path id="Fill 361" d="M117.403 177.641L117.403 191.238C118.414 187.873 118.826 184.373 118.624 180.88C118.651 179.489 117.958 177.762 119.758 176.933C121.57 175.993 123.525 175.321 125.554 174.941C126.248 174.846 127.545 176.374 127.937 177.376C128.178 178.621 128.205 179.893 128.017 181.145C129.134 180.707 129.797 180.198 130.39 180.26C131.618 180.391 133.307 181.461 133.935 181.027C137.431 178.604 141.264 180.195 144.879 180.005C145.818 180 146.746 180.196 147.594 180.576C148.442 180.956 149.188 181.511 149.777 182.2C151.702 185.279 155.587 186.219 157.623 189.84C157.603 191.839 158.305 193.785 159.614 195.359C160.912 196.698 161.892 198.282 162.49 200.005C163.088 201.729 163.29 203.551 163.083 205.354C162.9 207.349 162.882 209.354 163.027 211.352C158.438 213.916 153.662 216.404 149.09 219.189C144.303 222.098 139.946 220.143 135.87 218.134C132.898 216.665 128.905 215.979 127.892 212.067C121.257 209.246 120.074 202.65 116.525 197.667C114.715 194.313 113.696 190.631 113.539 186.872C112.98 183.943 115.183 180.547 116.154 177.36L117.403 177.641Z" fill-rule="nonzero" fill="#2FACB2"/>
	<path id="Fill 363" d="M247.633 246.196L238.417 237.521C238.284 235.168 238.323 232.811 238.535 230.464C238.667 229.56 240.058 228.642 241.091 228.11C241.483 227.904 242.479 228.763 243.228 229.145C244.206 227.323 244.779 224.857 248.084 225.458C248.719 225.627 249.399 225.566 249.989 225.289C250.672 224.558 251.533 223.996 252.499 223.65C253.465 223.304 254.506 223.185 255.532 223.303C259.44 223.862 263.166 225.235 266.438 227.323C272.569 231.872 277.447 237.744 280.659 244.443C282.484 248.597 283.878 252.908 284.822 257.314C285.054 258.448 284.942 259.621 284.497 260.697C284.053 261.773 283.295 262.709 282.311 263.398C278.495 265.918 274.808 268.642 270.902 271.039C269.492 271.91 267.828 272.347 266.143 272.289C261.465 272.244 256.949 270.671 253.367 267.839C249.785 265.007 247.358 261.092 246.503 256.763C245.809 255.341 245.394 253.813 245.278 252.253C245.828 250.16 246.619 248.128 247.637 246.196L247.633 246.196Z" fill-rule="nonzero" fill="#2FACB2"/>
	<path id="Fill 365" d="M264.412 475.101L263.611 471.29C263.611 476.332 257.939 478.219 256.708 482.503C256.58 482.852 256.372 483.171 256.099 483.436C255.826 483.701 255.494 483.905 255.127 484.036C254.76 484.166 254.367 484.219 253.976 484.189C253.585 484.161 253.205 484.051 252.864 483.868C251.237 482.483 250.131 483.493 249.212 484.057C248.192 484.753 246.964 485.126 245.705 485.123C244.446 485.119 243.22 484.739 242.205 484.038C235.021 480.083 227.608 476.449 223.373 469.204C218.27 466.601 216.779 461.321 213.619 457.308C212.258 455.021 211.209 452.581 210.497 450.046C212.374 447.473 215.097 448.155 218.392 449.703C218.333 448.451 218.034 447.22 217.507 446.069C216.605 444.929 217.57 444.479 218.08 444.276C220.496 443.582 222.749 442.46 224.719 440.972C225.177 440.547 226.495 440.71 227.317 440.949C228.781 441.364 230.033 442.245 231.656 441.001C232.118 440.652 233.62 441.351 234.56 441.742C242.819 444.589 249.905 449.83 254.796 456.71C255.732 457.831 256.803 458.846 257.988 459.734C261.11 462.464 261.696 466.441 264.11 469.383C264.778 470.188 265.165 471.168 265.219 472.189C265.273 473.209 264.991 474.22 264.412 475.084L264.412 475.101Z" fill-rule="nonzero" fill="#2FACB2"/>
	<path id="Fill 367" d="M672.951 179.708C673.128 178.539 673.298 177.37 673.502 176.08C673.992 176.407 674.425 176.547 674.543 176.805C676.528 180.678 678.163 184.703 679.43 188.834C680.069 191.505 680.88 194.059 678.133 196.146C676.263 197.562 678.161 201.634 673.953 201.406C671.969 204.407 668.792 204.106 665.75 203.9C665.217 205.843 664.546 207.75 663.741 209.608C662.732 211.567 659.506 212.129 656.048 211.198C655.257 210.986 654.494 210.265 653.772 210.323C648.17 210.784 648.18 210.823 645.822 206.663C644.528 204.652 643.356 202.574 642.311 200.439C641.835 199.202 641.082 198.075 640.102 197.136C639.122 196.196 637.939 195.467 636.633 194.996C634.622 194.2 632.86 192.934 631.515 191.317C630.169 189.701 629.285 187.787 628.946 185.758C628.698 183.877 629.005 181.967 629.834 180.239C630.664 178.511 631.982 177.031 633.646 175.962L639.568 183.248C639.568 180.185 639.533 178.124 639.568 176.064C639.602 174.003 639.849 174.431 643.289 172.975C645.752 171.933 649.315 173.197 650.73 169.987L658.014 169.726C662.499 169.559 666.478 170.02 668.566 174.712C669.768 176.566 671.245 178.249 672.954 179.708L672.951 179.708Z" fill-rule="nonzero" fill="#2FACB2"/>
	<path id="Fill 369" d="M9.4101 210.49C7.40802 210.169 5.57361 209.237 4.18915 207.838C2.80469 206.439 1.94684 204.651 1.74762 202.748C0.690796 198.789 0.117065 194.729 0.0375366 190.647C0.469971 185.175 0.463013 179.68 0.0167236 174.209C-0.191406 171.564 1.61237 169.605 1.57074 167.13C1.57074 166.477 2.51074 165.243 2.95825 165.266C6.427 165.452 8.06769 161.919 11.7029 161.899C14.1068 161.89 16.5002 159.767 19.2024 158.438C21.8629 160.942 27.5274 157.847 29.678 163.369C28.2662 167.248 31.7836 170.657 32.9768 174.631C33.1433 175.186 33.7607 175.682 33.7677 176.205C33.8232 182.464 33.8024 188.724 33.8024 195.525L31.1037 193.269C31.4506 194.738 31.3985 195.881 31.9293 196.247C32.46 196.613 33.6948 196.201 34.4996 196.456C34.8638 196.57 35.0615 197.478 35.0997 198.04C35.1205 198.298 34.5239 198.866 34.3088 198.823C32.6785 198.523 31.0724 198.105 29.3138 197.693L25.8693 204.71L21.8386 204.427C23.7568 206.249 21.5507 206.902 20.7564 208.019C20.0132 209.167 19.3325 210.351 18.7167 211.564C14.4814 211.134 12.9031 208.564 11.7792 205.158L9.42743 210.49L9.4101 210.49Z" fill-rule="nonzero" fill="#2FACB2"/>
	<path id="Fill 371" d="M504.838 501.85C501.369 501.759 498.06 500.871 496.378 504.505C493.533 500.979 493.2 498.477 496.093 495.688C497.824 493.5 499.788 491.483 501.955 489.67C504.193 488.195 505.011 484.972 506.919 482.898C508.62 481.43 510.498 480.153 512.514 479.094L514.745 481.151L511.585 483.264L511.931 484.025L516.725 483.313C517.183 483.966 517.717 485.625 518.858 486.183C525.236 489.795 530.539 494.866 534.274 500.926C535.405 503.005 536.388 505.153 537.215 507.355C539.931 512.528 540.632 513.484 539.806 518.187C539.559 521.773 538.128 525.198 535.713 527.982C534.467 529.055 533.633 530.485 533.341 532.051C533.191 535.581 531.131 536.146 528.103 535.969C527.238 535.926 526.371 536.014 525.536 536.23C520.249 537.569 519.705 537.429 517.069 533.618C513.583 527.831 510.881 521.655 509.028 515.235C507.425 510.8 506.201 506.239 504.845 501.847L504.838 501.85Z" fill-rule="nonzero" fill="#2FACB2"/>
	<path id="Fill 373" d="M419.257 432.345C415.424 430.603 411.866 428.368 408.684 425.707C403.006 420.309 396.911 415.258 391.687 409.498C385.839 403.832 380.894 397.397 377.007 390.396C377.354 387.591 381.232 390.572 381.305 387.264C381.326 386.32 383.782 385.41 385.145 384.515C388.527 382.294 390.414 381.922 392.877 384.391C395.15 386.533 398.103 387.919 401.289 388.338C406.204 389.318 409.593 392.871 413.797 395.059C417.996 397.708 421.815 400.856 425.157 404.427C427.219 405.933 429.18 407.556 431.03 409.289C432.759 411.161 434.028 413.368 434.748 415.754C434.782 416.633 434.629 417.51 434.299 418.333C433.97 419.156 433.469 419.909 432.826 420.547C431.411 422.099 430.745 424.335 428.269 425.086C426.836 425.517 427.041 427.022 426.76 428.263C426.44 429.687 426.017 431.421 423.392 429.631C421.557 428.384 420.009 430.154 419.229 432.342L419.257 432.345Z" fill-rule="nonzero" fill="#2FACB2"/>
	<path id="Fill 375" d="M690.222 395.695C682.552 392.72 679.253 387.205 675.976 381.817C673.068 377.095 670.517 372.185 668.344 367.124C666.194 362.069 662.472 357.285 664.133 350.928C668.989 354.111 668.584 360.194 673.242 364.263C672.389 357.844 668.84 352.857 667.071 346.088L671.494 348.374C671.695 347.254 671.924 346.088 672.139 344.946L678.535 343.803C679.163 344.747 679.985 346.141 680.964 347.431C684.779 352.456 684.779 352.433 691.717 354.748C692.483 355.041 693.214 355.411 693.895 355.852C699.425 358.718 703.992 362.986 707.076 368.172C708.457 370.657 709.31 373.373 709.588 376.165C709.678 376.751 709.971 377.292 710.42 377.707C710.634 377.879 710.796 378.102 710.891 378.352C710.985 378.602 711.009 378.871 710.96 379.132C710.91 379.394 710.789 379.638 710.609 379.842C710.429 380.046 710.195 380.203 709.931 380.296C706.906 381.902 705.599 385.06 702.914 386.951C702.425 387.349 702.033 387.842 701.764 388.396C701.495 388.95 701.356 389.551 701.356 390.16C700.87 391.248 700.064 392.181 699.033 392.851C698.001 393.521 696.788 393.899 695.536 393.941C694.447 393.703 693.742 391.822 692.261 393.21C691.518 393.995 690.83 394.825 690.201 395.695L690.222 395.695Z" fill-rule="nonzero" fill="#2FACB2"/>
	<path id="Fill 377" d="M472.252 248.048L468.145 248.701L469.796 251.61L459.845 260.981C459.224 260.927 458.599 260.927 457.978 260.981C450.43 262.288 445.401 258.265 441.211 253.399C437.891 249.569 435.11 245.352 432.938 240.851C431.19 238.036 430.614 234.71 431.321 231.519L437.7 244.681L438.789 244.354C438.702 243.539 438.528 242.734 438.269 241.951C436.906 238.892 435.352 235.911 434.065 232.825C433.496 231.46 432.272 229.762 435.386 229.128C436.347 228.933 436.909 226.983 437.641 225.831C438.283 224.818 438.904 223.793 439.414 222.977C442.56 222.706 442.591 225.295 444.551 226.363L443.039 220.959L446.733 218.2C447.583 218.993 448.706 220.26 449.751 217.925C450.885 215.404 452.56 214.421 455.255 216.077C455.502 216.228 456.012 216.345 456.175 216.217C459.317 213.782 461.166 216.217 462.62 218.072C465.706 222.712 468.121 227.72 469.8 232.962C470.289 234.157 471.354 236.959 467.774 237.096C467.573 237.096 467.427 238.15 467.24 238.729C467.986 238.898 469.13 239.44 469.415 239.173C469.612 238.891 469.904 238.681 470.244 238.576C470.584 238.472 470.952 238.479 471.288 238.596C471.623 238.713 471.906 238.935 472.091 239.223C472.276 239.512 472.351 239.851 472.304 240.185C471.097 242.853 473.893 245.432 472.245 248.064L472.252 248.048Z" fill-rule="nonzero" fill="#2FACB2"/>
	<path id="Fill 379" d="M447.891 112.848L450.666 115.46C450.885 113.667 451.069 112.195 451.27 110.578C454.045 110.033 456.893 109.344 459.793 108.946C461.566 108.697 463.368 108.697 465.141 108.946C466.473 109.142 465.429 111.479 467.916 111.682C469.523 111.816 470.757 114.382 471.898 116.172C472.828 117.625 471.437 120.766 474.961 120.58C475.082 122.635 475.204 124.692 475.329 126.751C475.348 126.952 475.378 127.151 475.419 127.349L485.42 136.763C486.515 136.692 487.614 136.702 488.708 136.792C490.38 137.047 492.177 138.604 491.32 139.571C489.416 141.72 492.829 143.205 491.476 144.958C487.964 146.303 484.104 146.628 480.393 145.893C481.455 148.051 482.378 149.932 483.536 152.299C482.86 152.91 481.968 154.399 481.091 154.396C475.541 154.356 469.71 155.679 464.767 151.976C463.321 151.107 461.98 150.093 460.767 148.952C458.391 146.15 456.258 143.16 454.093 140.205C453.025 138.748 452.113 137.188 451.086 135.698C449.508 133.413 449.98 130.095 447.066 128.449C447.065 125.854 446.266 123.313 444.766 121.135C444.372 120.401 444.139 119.6 444.084 118.78C444.028 117.959 444.149 117.137 444.441 116.362C444.733 115.587 445.189 114.876 445.782 114.272C446.374 113.668 447.091 113.183 447.888 112.848L447.891 112.848Z" fill-rule="nonzero" fill="#2FACB2"/>
	<path id="Fill 381" d="M240.176 18.9312L246.385 18.9312C248.785 18.9312 251.383 18.5557 251.935 21.8242C252.069 22.0669 252.267 22.2734 252.509 22.4238C252.752 22.5742 253.032 22.6636 253.322 22.6831C256.167 22.2847 256.902 24.8154 258.643 25.9287C263.357 28.9458 264.051 33.9224 265.241 38.5195C265.914 41.1318 265.015 43.0259 261.841 44.812C258.283 46.8169 253.829 48.0771 251.383 51.7051C249.226 51.7441 247.46 54.9214 244.942 52.3779C244.432 52.019 243.8 51.8481 243.166 51.8975C234.674 52.0513 229.364 47.46 224.917 41.3379C222.271 38.5059 220.246 35.2104 218.957 31.6396C218.604 30.0649 218.372 28.4688 218.264 26.8628C218.225 26.3369 218.555 25.4292 218.957 25.2954C222.36 24.146 224.854 21.4028 228.16 20.2832C232.003 18.9736 236.113 18.5112 240.176 18.9312Z" fill-rule="nonzero" fill="#2FACB2"/>
	<path id="Fill 383" d="M229.384 326.258L232.506 330.872C232.822 328.665 232.943 327.911 233.034 327.153C233.325 324.642 233.318 324.645 236.69 324.322C237.113 324.279 237.761 324.322 237.911 324.11C238.528 323.098 239.502 322.321 240.663 321.913C241.825 321.505 243.102 321.492 244.272 321.876C247.101 322.528 249.764 323.702 252.108 325.328C259.973 332.105 265.848 340.679 269.164 350.219C269.519 352.019 269.55 353.863 269.254 355.672L266.684 355.401C266.854 357.687 266.309 359.359 263.486 359.894C262.979 360.067 262.525 360.354 262.162 360.73C261.8 361.105 261.54 361.558 261.404 362.049C261.12 364.786 258.133 363.453 257.093 364.877C255.428 362.386 252.583 365.403 250.696 363.62C248.903 361.916 246.451 360.6 245.268 358.598C242.533 354.236 240.306 349.61 238.625 344.799C238.373 343.723 237.893 342.707 237.215 341.809C236.537 340.912 235.674 340.151 234.678 339.574C231.451 337.925 228.861 335.356 227.279 332.237C225.95 329.521 225.891 329.546 229.384 326.258Z" fill-rule="nonzero" fill="#2FACB2"/>
	<path id="Fill 385" d="M355.525 252.567C355.437 251.806 355.456 251.037 355.581 250.281C355.727 249.755 356.681 249.399 356.767 248.893C356.854 248.387 356.181 247.718 356.181 247.107C356.181 246.575 356.972 245.922 356.816 245.53C356.471 244.782 355.929 244.13 355.241 243.636C354.597 243.338 353.904 243.146 353.191 243.068C353.611 244.439 353.947 245.546 354.291 246.66C351.897 245.295 349.244 244.208 350.419 240.919L353.562 242.189C353.947 238.249 350.052 240.292 348.55 238.421C350.746 238.667 352.209 237.243 354.419 237.517C355.46 237.644 356.774 235.597 358.346 234.196L365.824 239.943L366.546 235.803L376.439 234.003C378.173 236.07 379.505 237.958 381.142 239.581C382.564 240.985 384.517 241.918 385.887 243.358C389.396 247.542 391.859 252.416 393.095 257.618C393.664 259.434 394.292 262.304 390.608 262.791C390.608 266.121 386.893 266.621 385.211 268.73C384.005 270.016 382.368 270.873 380.571 271.158C378.775 271.443 376.929 271.139 375.342 270.297C369.814 267.771 365.05 263.974 361.492 259.257C359.563 257.096 357.399 255.055 355.525 252.57L355.525 252.567Z" fill-rule="nonzero" fill="#2FACB2"/>
	<path id="Fill 387" d="M466.446 334.731L469.783 335.799C470.025 330.47 464.177 328.975 463.362 324.07C464.357 324.377 465.312 324.788 466.21 325.295C467.424 326.305 468.581 327.373 469.679 328.495C469.54 326.573 468.68 324.76 467.25 323.381C470.809 319.339 470.809 319.339 474.972 319.339C476.99 322.097 479.417 324.569 482.18 326.679C485.43 328.55 486.388 331.741 488.771 334.029C490.964 336.42 492.764 339.107 494.112 342C495.058 343.544 495.499 345.315 495.382 347.094C495.035 349.131 494.112 352.126 492.583 352.704C490.064 353.657 490.63 355.333 489.836 356.775C489.392 357.845 488.677 358.795 487.754 359.545C486.831 360.295 485.727 360.822 484.539 361.079C482.947 361.324 481.053 362.467 479.884 361.974C476.953 360.848 474.28 359.202 472.01 357.125C468.084 353.092 464.439 348.826 461.097 344.351C460.261 343.241 460.656 341.292 460.403 339.094L462.935 341.014C462.443 337.781 465.443 336.674 466.446 334.728L466.446 334.731Z" fill-rule="nonzero" fill="#2FACB2"/>
	<path id="Fill 389" d="M431.061 567.101L427.478 565.246C425.965 570.392 425.591 570.66 421.12 568.805C422.299 571.391 423.246 573.458 424.273 575.708L420.703 577.667L413.894 571.244C412.437 574.333 416.447 575.757 416.052 578.754C412.455 579.225 410.37 576.923 408.299 574.804C407.168 573.647 406.565 572.031 405.392 570.918C400.238 565.941 395.484 560.611 391.17 554.97C390.743 554.478 390.271 554.022 389.759 553.608C388.274 552.625 387.017 551.368 386.063 549.914C385.109 548.459 384.478 546.838 384.209 545.148C386.824 543.639 388.215 545.964 389.994 547.401C391.805 544.583 387.618 544.208 387.806 542.131C387.965 539.623 393.026 542.82 391.739 538.725L399.024 538.725C401.105 540.106 403.224 541.475 405.299 542.895C407.132 544.627 409.143 546.184 411.303 547.542C413.776 548.655 415.427 551.316 417.592 553.122C419.011 554.301 419.912 555.92 422.181 556.449C423.822 556.831 424.699 559.176 427.19 558.872C427.884 558.787 429.136 559.966 429.486 560.805C430.162 562.868 430.688 564.971 431.061 567.101Z" fill-rule="nonzero" fill="#2FACB2"/>
	<path id="Fill 391" d="M384.816 143.352C387.129 143.496 388.728 142.373 390.848 143.806L388.142 144.685C388.936 147.225 389.821 149.746 390.47 152.322C390.636 152.975 390.268 154.281 389.776 154.477C387.095 155.548 386.262 158.288 384.16 159.793C383.089 160.406 381.871 160.753 380.618 160.802C380.008 160.864 379.29 159.999 378.679 160.058C377.879 160.295 377.131 160.669 376.473 161.161C375.318 157.318 375.377 157.165 370.83 155.705C368.107 154.83 367.541 152.312 365.626 150.729L364.312 153.37C363.618 152.694 362.466 152.087 362.466 151.483C362.501 143.933 362.494 143.764 358.835 139.241C356.771 142.653 360.725 144.629 360.94 147.966C359.962 147.822 358.512 147.93 358.328 147.535C356.615 143.6 353.996 139.875 356.684 135.163C357.516 133.697 357.669 132.929 359.542 132.896C360.782 132.76 361.963 132.324 362.969 131.63C365.633 130.043 368.204 128.315 371.055 126.487L372.179 128.044C374.427 129.521 376.772 125.546 377.146 129.677C377.254 130.853 380.046 128.044 380.046 131.127C380.046 132.315 382.367 133.507 383.536 134.607L382.311 137.589L383.307 138.242L385.214 134.83C386.415 136.753 387.115 137.866 388.031 139.326L384.816 143.352Z" fill-rule="nonzero" fill="#2FACB2"/>
	<path id="Fill 393" d="M158.584 332.6L154.445 327.669L152.735 330.97C150.36 329.818 148.353 328.093 146.918 325.971C143.644 321.622 141.108 316.822 137.785 312.462C136.852 311.057 136.247 309.479 136.014 307.836C135.78 306.193 135.921 304.522 136.429 302.935C139.495 302.35 140.161 305.743 142.718 306.602L142.718 300.433L156.475 298.608C160.635 302.064 163.892 306.377 165.993 311.212C167.183 313.903 169.649 315.914 170.398 319.006C170.693 320.224 169.035 321.86 171.092 322.768C170.91 323.274 170.701 323.771 170.464 324.257C167.134 323.127 166.01 327.676 162.805 326.944C162.597 326.895 162.032 328.061 161.713 328.701C161.444 329.435 161.128 330.154 160.769 330.853C160.12 331.511 159.392 332.097 158.601 332.6L158.584 332.6Z" fill-rule="nonzero" fill="#2FACB2"/>
	<path id="Fill 395" d="M307.667 409.227L310.331 415.026C310.969 413.439 311.261 412.71 311.573 411.94C311.875 412.113 312.367 412.234 312.433 412.462C313.015 414.598 314.175 416.554 315.801 418.141C316.766 419.193 317.573 420.366 318.198 421.625C318.707 422.692 319.487 423.625 320.469 424.341C321.452 425.057 322.607 425.534 323.831 425.729L324.914 423.663L328.604 426.274C328.604 427.065 328.695 427.404 328.604 427.466C327.387 428.211 326.138 428.917 325 429.573C325.347 431.303 325.628 432.871 326.072 435.222L321.355 433.05L318.639 438.196L315.382 438.545L315.382 441.36C314.766 441.915 314.036 442.344 313.237 442.623C312.438 442.901 311.587 443.023 310.737 442.98C309.886 442.938 309.054 442.732 308.291 442.375C307.528 442.019 306.85 441.519 306.3 440.906C303.106 438.164 299.505 435.849 296.241 432.583L300.383 430.01C299.599 427.416 298.239 425.007 296.394 422.944C294.681 420.54 293.228 417.98 292.058 415.303C294.028 413.018 295.585 414.709 297.396 415.424C297.472 414.771 297.785 414.118 297.573 413.645C296.22 410.787 296.806 409.374 299.665 409.25C302.353 409.132 305.045 409.227 307.667 409.227Z" fill-rule="nonzero" fill="#2FACB2"/>
	<path id="Fill 397" d="M116.102 434.278L119.3 438.735C119.598 437.86 119.994 437.295 119.914 436.822C119.456 434.536 118.873 432.27 118.239 429.69L122.151 429.69L123.723 432.77L123.723 427.594C124.375 427.454 125.004 427.234 125.596 426.941C126.637 426.209 128.295 424.547 128.465 424.678C130.175 426.004 132.28 425.204 133.945 425.801C135.26 426.096 136.437 426.784 137.301 427.762C138.164 428.74 138.668 429.955 138.736 431.225C138.736 432.113 137.476 433.1 137.664 433.837C137.816 434.445 139.544 434.579 140.061 435.264C140.275 435.629 140.389 436.039 140.393 436.455C140.396 436.872 140.289 437.283 140.081 437.651C138.347 438.958 138.722 440.659 138.84 442.246C138.997 443.063 138.808 443.907 138.314 444.596C137.821 445.285 137.061 445.766 136.196 445.936C134.198 446.471 133.73 447.676 133.31 449.475C133.126 450.708 132.442 451.825 131.402 452.594C130.361 453.362 129.045 453.721 127.729 453.596C126.639 453.531 125.545 453.597 124.472 453.792C121.798 454.343 118.426 453.736 117.6 451.891C115.557 447.385 112.609 443.127 113.157 437.821C113.372 435.754 114.694 435.167 116.102 434.278Z" fill-rule="nonzero" fill="#2FACB2"/>
	<path id="Fill 399" d="M331.938 320.296L337.505 321.831C338.082 320.92 338.322 319.856 338.188 318.804C338.055 317.752 337.555 316.771 336.766 316.015C339.125 313.997 340.697 317.041 343.01 316.71C343.222 315.601 343.454 314.441 343.687 313.308C345.497 311.483 347.131 314.85 349.32 313.262C351.509 311.675 352.123 315.146 354.027 315.548C355.18 315.98 356.167 316.732 356.857 317.703C359.386 320.623 359.778 324.75 363.184 327.297C364 327.904 363.566 329.997 363.746 331.868C359.972 330.125 359.743 335.76 356.115 334.425C354.998 336.129 356.053 339.215 351.953 339.584L349.875 336.26L348.251 339.454C345.962 339.966 344.911 338.105 344.158 336.923C341.744 333.074 338.327 329.869 334.231 327.61C333.547 327.294 332.941 326.848 332.45 326.3C331.959 325.752 331.594 325.115 331.378 324.427C331.163 323.739 331.101 323.017 331.198 322.306C331.294 321.595 331.546 320.911 331.938 320.296Z" fill-rule="nonzero" fill="#2FACB2"/>
	<path id="Fill 401" d="M299.193 151.963L290.649 158.268L284.995 158.268C282.793 155.271 282.078 151.329 278.831 148.854C278.495 144.688 275.429 142.095 272.782 139.186C271.918 138.258 272.088 136.498 271.741 134.774C272.713 134.52 273.677 134.539 274.169 134.095C279.345 129.546 284.229 132.103 288.329 135.218C291.833 137.996 294.859 141.267 297.299 144.916C298.358 147.146 298.998 149.531 299.193 151.966L299.193 151.963Z" fill-rule="nonzero" fill="#2FACB2"/>
</svg>
