<svg width="329" height="48" fill="none" xmlns="http://www.w3.org/2000/svg"><g opacity=".2" clip-rule="evenodd" stroke="#fff"><path opacity=".2" d="M94.66-33.325c6.617 4.785 7.759 14.822 10.509 23.156 2.559 7.75 5.151 15.3 4.921 23.578-.271 9.74.532 21.764-6.348 27.612-6.93 5.896-16.687-1.076-25.337-.661-7.83.37-16.305 7.945-22.786 2.961-6.551-5.038-3.395-16.927-6.252-25.301-2.635-7.72-10.448-13.323-9.74-21.568.717-8.364 7.628-14.004 13.26-19.48 5.495-5.341 11.532-9.74 18.604-11.486 7.745-1.903 16.488-3.631 23.17 1.189Z"/><path opacity=".2" d="M104.981-57.714c10.688 7.722 12.553 23.897 17.012 37.326 4.15 12.5 8.348 24.661 7.994 38.003-.417 15.69.909 35.06-10.182 44.462-11.172 9.478-26.93-1.78-40.895-1.143-12.635.583-26.297 12.762-36.771 4.712-10.589-8.133-5.516-27.284-10.147-40.783C27.722 12.421 15.102 3.378 16.224-9.9c1.139-13.48 12.282-22.553 21.357-31.35 8.859-8.59 18.592-15.663 30-18.448 12.5-3.054 26.603-5.815 37.4 1.984Z"/><path opacity=".2" d="M114.98-81.34c14.634 10.57 17.195 32.687 23.311 51.058 5.688 17.088 11.445 33.74 10.972 51.964-.557 21.47 1.27 47.944-13.898 60.796-15.28 12.946-36.855-2.463-55.964-1.599-17.292.779-35.976 17.417-50.316 6.4-14.493-11.141-7.573-37.314-13.92-55.775C9.312 14.479-7.967 2.099-6.443-16.058c1.548-18.432 16.788-30.816 29.2-42.843C34.872-70.635 48.189-80.298 63.8-84.093c17.097-4.167 36.403-7.92 51.18 2.753Z"/><path opacity=".2" d="M124.011-102.688c18.197 13.145 21.393 40.625 29.001 63.456 7.079 21.251 14.243 41.936 13.662 64.592-.683 26.672 1.602 59.57-17.254 75.536-18.992 16.081-45.82-3.081-69.576-2.025-21.499.96-44.72 21.633-62.554 7.931C-.733 92.953 7.86 60.434-.038 37.49-7.323 16.33-28.808.936-26.92-21.623-25.003-44.519-6.061-59.91 9.365-74.848c15.057-14.578 31.606-26.579 51.014-31.289 21.258-5.17 45.254-9.827 63.631 3.449Z"/><path opacity=".2" d="M132.396-122.504c21.506 15.533 25.292 48 34.286 74.976 8.369 25.099 16.84 49.536 16.159 76.3-.801 31.508 1.908 70.384-20.369 89.232-22.439 18.994-54.145-3.655-82.217-2.4-25.404 1.124-52.84 25.536-73.915 9.338-21.3-16.365-11.154-54.779-20.493-81.883-8.61-25.003-34.005-43.195-31.779-69.843 2.26-27.055 24.64-45.233 42.861-62.868 17.789-17.218 37.342-31.392 60.275-36.949 25.12-6.091 53.475-11.588 75.192 4.097Z"/><path opacity=".2" d="M141.104-143.086c24.942 18.011 29.336 55.656 39.772 86.933 9.711 29.098 19.536 57.438 18.75 88.467-.919 36.538 2.229 81.6-23.602 103.457-26.017 22.015-62.789-4.255-95.343-2.815-29.459 1.299-61.27 29.6-85.713 10.814-24.702-18.978-12.944-63.516-23.779-94.944-9.991-28.985-39.443-50.087-36.866-80.983 2.615-31.36 28.566-52.435 49.696-72.879 20.628-19.953 43.297-36.384 69.89-42.822 29.128-7.055 62.008-13.425 87.195 4.772Z"/><path opacity=".2" d="M151.746-168.247c29.139 21.051 34.282 65.022 46.477 101.556 11.35 33.995 22.834 67.097 21.923 103.338-1.071 42.673 2.615 95.315-27.56 120.841-30.389 25.702-73.356-4.982-111.384-3.31-34.415 1.513-71.576 34.554-100.133 12.615C-47.794 144.617-34.064 92.6-46.726 55.888-58.404 22.026-92.813-2.62-89.808-38.714c3.05-36.63 33.364-61.238 58.047-85.112 24.093-23.304 50.576-42.484 81.643-50.008 34.025-8.237 72.437-15.663 101.864 5.587Z"/><path opacity=".2" d="M163.358-195.686c33.722 24.35 39.677 75.228 53.793 117.498 13.135 39.334 26.428 77.636 25.381 119.565-1.237 49.373 3.036 110.274-31.874 139.795-35.162 29.734-84.882-5.778-128.886-3.84-39.821 1.74-82.815 39.97-115.864 14.578-33.4-25.658-17.521-85.837-32.178-128.322-13.516-39.174-53.336-67.7-49.863-109.452 3.525-42.384 38.596-70.843 67.156-98.465 27.878-26.957 58.517-49.142 94.463-57.836 39.372-9.526 83.817-18.115 117.872 6.479Z"/><path opacity=".2" d="M174.646-222.371c38.177 27.571 44.922 85.161 60.903 133.006 14.875 44.523 29.929 87.877 28.745 135.34-1.395 55.872 3.444 124.814-36.068 158.228-39.802 33.648-96.088-6.555-145.902-4.376-45.079 1.974-93.744 45.232-131.159 16.494-37.812-29.05-19.841-97.167-36.437-145.248-15.304-44.338-60.383-76.63-56.458-123.893 3.986-47.966 43.684-80.179 76.01-111.441 31.555-30.514 66.24-55.62 106.928-65.456 44.573-10.776 94.886-20.494 133.438 7.346Z"/><path opacity=".2" d="M184.966-246.76c42.252 30.505 49.723 94.229 67.409 147.168 16.462 49.268 33.126 97.239 31.817 149.76-1.539 61.833 3.821 138.118-39.902 175.085-44.047 37.235-106.334-7.257-161.46-4.845-49.884 2.171-103.735 50.046-145.141 18.233-41.845-32.148-21.964-107.52-40.333-160.726-16.941-49.07-66.826-84.803-62.484-137.098 4.405-53.081 48.336-88.718 84.108-123.309 34.916-33.757 73.296-61.536 118.325-72.416 49.321-11.921 104.997-22.667 147.661 8.148Z"/><path opacity=".2" d="M195.931-272.684c46.579 33.637 54.812 103.872 74.319 162.24C288.402-56.13 306.771-3.251 305.331 54.645c-1.694 68.149 4.224 152.236-43.978 192.981-48.547 41.039-117.217-8.004-177.984-5.358-54.992 2.4-114.353 55.158-159.999 20.091-46.131-35.438-24.218-118.515-44.471-177.168-18.676-54.085-73.672-93.48-68.888-151.124 4.855-58.514 53.28-97.793 92.71-135.919 38.49-37.212 80.796-67.83 130.435-79.818 54.367-13.133 115.743-24.981 162.775 8.986Z"/><path opacity=".2" d="M207.865-300.89c51.288 37.044 60.36 114.368 81.839 178.629 19.991 59.79 40.216 118.016 38.637 181.753-1.863 75.037 4.659 167.617-48.413 212.474-53.449 45.182-129.064-8.816-195.974-5.905-60.55 2.632-125.907 60.72-176.168 22.105-50.795-39.02-26.672-130.485-48.974-195.065-20.566-59.55-81.122-102.933-75.858-166.394 5.343-64.416 58.658-107.662 102.07-149.633 42.378-40.967 88.958-74.67 143.612-87.871 59.863-14.455 127.441-27.488 179.229 9.907Z"/></g></svg>