<svg width="496" height="48" fill="none" xmlns="http://www.w3.org/2000/svg"><g opacity=".2" clip-rule="evenodd" stroke="#fff"><path opacity=".2" d="M359.269 58.514c24.942 18.01 29.336 55.656 39.772 86.933 9.71 29.098 19.535 57.438 18.75 88.467-.919 36.538 2.229 81.6-23.602 103.457-26.017 22.015-62.789-4.255-95.344-2.815-29.458 1.299-61.269 29.6-85.712 10.814-24.703-18.978-12.945-63.516-23.779-94.944-9.991-28.985-39.443-50.087-36.866-80.983 2.615-31.36 28.565-52.435 49.696-72.88 20.628-19.952 43.297-36.383 69.889-42.821 29.129-7.055 62.009-13.424 87.196 4.772Z"/><path opacity=".2" d="M369.911 33.353c29.139 21.051 34.281 65.022 46.476 101.556 11.351 33.995 22.835 67.097 21.924 103.338-1.071 42.673 2.615 95.315-27.561 120.841-30.388 25.702-73.355-4.982-111.383-3.31-34.415 1.513-71.576 34.554-100.133 12.615-28.863-22.176-15.133-74.193-27.796-110.905-11.677-33.862-46.086-58.507-43.081-94.602 3.049-36.63 33.364-61.238 58.046-85.112 24.094-23.304 50.577-42.485 81.643-50.008 34.026-8.237 72.438-15.663 101.865 5.587Z"/><path opacity=".2" d="M381.522 5.914c33.723 24.35 39.678 75.228 53.794 117.498 13.134 39.334 26.428 77.636 25.381 119.565-1.237 49.373 3.036 110.274-31.875 139.795-35.161 29.734-84.881-5.778-128.886-3.84-39.821 1.74-82.814 39.97-115.864 14.578-33.399-25.658-17.52-85.837-32.177-128.322-13.516-39.174-53.336-67.7-49.863-109.452 3.525-42.384 38.596-70.843 67.156-98.465C197.065 30.314 227.705 8.13 263.651-.565c39.371-9.526 83.816-18.115 117.871 6.479Z"/><path opacity=".2" d="M392.81-20.771C430.988 6.8 437.733 64.39 453.714 112.235c14.874 44.523 29.929 87.877 28.745 135.34-1.395 55.872 3.444 124.814-36.068 158.228-39.802 33.648-96.089-6.555-145.902-4.376-45.079 1.974-93.744 45.232-131.159 16.494-37.812-29.05-19.841-97.167-36.437-145.248-15.305-44.338-60.383-76.63-56.458-123.893 3.985-47.966 43.683-80.18 76.01-111.44 31.554-30.515 66.24-55.621 106.928-65.457 44.572-10.776 94.886-20.494 133.437 7.346Z"/><path opacity=".2" d="M403.131-45.16c42.252 30.505 49.722 94.229 67.409 147.168 16.462 49.268 33.126 97.238 31.816 149.76-1.538 61.833 3.821 138.118-39.901 175.085-44.047 37.235-106.334-7.257-161.46-4.845-49.885 2.171-103.736 50.046-145.142 18.233-41.844-32.148-21.963-107.52-40.332-160.726-16.942-49.07-66.827-84.803-62.485-137.098 4.405-53.08 48.337-88.718 84.108-123.309 34.917-33.757 73.296-61.536 118.325-72.415 49.322-11.922 104.998-22.668 147.662 8.147Z"/><path opacity=".2" d="M414.095-71.084c46.579 33.637 54.813 103.872 74.32 162.24 18.152 54.314 36.52 107.193 35.08 165.088-1.694 68.15 4.225 152.237-43.977 192.982-48.548 41.039-117.217-8.004-177.984-5.358-54.992 2.4-114.353 55.158-159.999 20.091-46.131-35.438-24.219-118.515-44.47-177.168-18.677-54.085-73.673-93.479-68.89-151.124 4.856-58.514 53.28-97.793 92.711-135.92 38.489-37.21 80.796-67.829 130.434-79.817 54.368-13.133 115.744-24.981 162.775 8.986Z"/><path opacity=".2" d="M426.03-99.29c51.287 37.044 60.359 114.368 81.839 178.629 19.991 59.791 40.216 118.016 38.637 181.753-1.864 75.037 4.659 167.617-48.413 212.474-53.449 45.182-129.065-8.816-195.975-5.905-60.549 2.632-125.906 60.72-176.168 22.105-50.794-39.02-26.67-130.485-48.973-195.065C56.41 235.151-4.145 191.768 1.119 128.307 6.462 63.891 59.776 20.645 103.189-21.326c42.378-40.967 88.957-74.67 143.611-87.871 59.864-14.455 127.442-27.489 179.23 9.907Z"/></g></svg>