<svg width="55" height="55" fill="none" xmlns="http://www.w3.org/2000/svg"><g clip-path="url(#a)"><path d="M0 4a4 4 0 0 1 4-4h47a4 4 0 0 1 4 4v47a4 4 0 0 1-4 4H4a4 4 0 0 1-4-4V4Z" fill="#35B8BE"/><g opacity=".2" clip-rule="evenodd" stroke="#fff"><path opacity=".2" d="M-.717-52.294C.923-48.86 1.21-41.677 1.897-35.71c.637 5.552 1.284 10.959 1.23 16.879-.063 6.974.142 15.573-1.558 19.747-1.714 4.205-4.132-.8-6.275-.52-1.939.254-4.034 5.659-5.642 2.08-1.625-3.619-.849-12.12-1.56-18.117-.657-5.53-2.594-9.55-2.423-15.449.174-5.986 1.882-10.009 3.274-13.916 1.359-3.811 2.851-6.95 4.602-8.183 1.917-1.352 4.081-2.57 5.738.895Z"/><path opacity=".2" d="M.295-59.229c2.04 4.27 2.399 13.2 3.252 20.612.794 6.903 1.597 13.621 1.532 20.981-.077 8.664.18 19.35-1.935 24.536-2.13 5.225-5.137-1.001-7.8-.659-2.41.314-5.015 7.028-7.014 2.577-2.02-4.498-1.057-15.062-1.943-22.515-.817-6.875-3.226-11.873-3.015-19.2.215-7.437 2.339-12.437 4.068-17.288 1.688-4.735 3.544-8.634 5.72-10.164 2.384-1.678 5.075-3.192 7.135 1.12Z"/><path opacity=".2" d="M1.237-65.665c2.411 5.042 2.836 15.59 3.844 24.353.938 8.153 1.888 16.092 1.812 24.783-.09 10.235.213 22.862-2.284 28.985-2.516 6.169-6.07-1.188-9.218-.781-2.848.366-5.924 8.294-8.287 3.033-2.388-5.317-1.25-17.793-2.298-26.597-.965-8.121-3.812-14.03-3.563-22.686.253-8.788 2.763-14.692 4.806-20.42 1.995-5.592 4.188-10.196 6.758-12.003 2.815-1.976 5.994-3.76 8.43 1.333Z"/><path opacity=".2" d="M2.212-72.35C5.008-66.5 5.5-54.272 6.67-44.116 7.76-34.664 8.86-25.46 8.773-15.38c-.103 11.868.251 26.506-2.646 33.603-2.917 7.15-7.04-1.381-10.69-.916-3.303.421-6.87 9.614-9.61 3.512-2.77-6.164-1.451-20.63-2.666-30.839-1.12-9.415-4.422-16.269-4.132-26.308.294-10.186 3.203-17.032 5.572-23.672 2.313-6.481 4.855-11.818 7.836-13.91 3.264-2.28 6.95-4.35 9.775 1.56Z"/><path opacity=".2" d="M3.405-80.522c3.267 6.838 3.844 21.12 5.21 32.987 1.273 11.042 2.561 21.793 2.458 33.565-.12 13.86.293 30.96-3.09 39.251-3.406 8.348-8.225-1.62-12.488-1.075-3.86.49-8.025 11.223-11.227 4.097-3.236-7.202-1.697-24.099-3.117-36.025-1.309-11-5.167-19.003-4.83-30.727.342-11.898 3.741-19.892 6.508-27.646 2.702-7.57 5.671-13.8 9.154-16.244C-4.2-85.012.106-87.424 3.405-80.522Z"/><path opacity=".2" d="M4.707-89.434C8.487-81.525 9.155-65 10.737-51.27c1.473 12.776 2.964 25.218 2.846 38.837-.14 16.037.34 35.818-3.574 45.406-3.942 9.658-9.516-1.876-14.45-1.247-4.465.565-9.285 12.983-12.99 4.735-3.745-8.333-1.965-27.881-3.608-41.68-1.516-12.725-5.98-21.99-5.591-35.552.395-13.767 4.327-23.008 7.53-31.983 3.126-8.756 6.56-15.963 10.59-18.786 4.415-3.095 9.399-5.884 13.217 2.105Z"/><path opacity=".2" d="M5.972-98.103c4.28 8.956 5.037 27.662 6.83 43.203 1.667 14.461 3.355 28.544 3.222 43.96-.156 18.15.386 40.542-4.044 51.395-4.462 10.93-10.773-2.13-16.358-1.42-5.053.641-10.51 14.692-14.706 5.357-4.24-9.436-2.224-31.562-4.085-47.18-1.716-14.402-6.77-24.892-6.33-40.242.447-15.584 4.898-26.043 8.522-36.197 3.538-9.911 7.427-18.067 11.99-21.262 4.996-3.5 10.637-6.657 14.96 2.386Z"/><path opacity=".2" d="M7.13-106.027c4.737 9.91 5.574 30.608 7.558 47.802C16.533-42.22 18.4-26.64 18.255-9.58c-.173 20.084.428 44.863-4.474 56.87C8.843 59.384 1.86 44.933-4.322 45.715c-5.593.706-11.63 16.256-16.273 5.923-4.69-10.443-2.462-34.925-4.523-52.206-1.898-15.94-7.492-27.546-7.005-44.532.494-17.242 5.419-28.817 9.43-40.052 3.915-10.965 8.218-19.983 13.266-23.522 5.53-3.869 11.772-7.359 16.557 2.647Z"/><path opacity=".2" d="M8.36-114.445c5.222 10.926 6.145 33.739 8.332 52.697 2.035 17.642 4.095 34.817 3.933 53.625-.19 22.135.475 49.448-4.93 62.683-5.445 13.33-13.143-2.6-19.956-1.742-6.166.78-12.821 17.917-17.94 6.526-5.171-11.511-2.715-38.5-4.985-57.547-2.094-17.567-8.26-30.363-7.724-49.087.545-19.006 5.975-31.764 10.395-44.149 4.315-12.087 9.059-22.031 14.624-25.925 6.096-4.266 12.977-8.114 18.25 2.919Z"/><path opacity=".2" d="M9.697-123.606c5.75 12.032 6.767 37.148 9.175 58.025 2.241 19.422 4.51 38.333 4.332 59.033-.208 24.374.522 54.445-5.428 69.015-5.993 14.676-14.47-2.863-21.972-1.918-6.789.855-14.116 19.723-19.752 7.18-5.695-12.674-2.99-42.383-5.49-63.36-2.306-19.342-9.096-33.434-8.506-54.047.6-20.923 6.577-34.97 11.445-48.603 4.751-13.307 9.974-24.254 16.101-28.542 6.712-4.697 14.287-8.934 20.095 3.217Z"/></g></g><g clip-path="url(#b)"><path d="M16.832 21H13v-2h6.462l.66 4h16.407v5.938L18.543 31.37 16.833 21Zm18.962 15c-1.218 0-2.206-.672-2.206-1.5s.988-1.5 2.206-1.5S38 33.672 38 34.5s-.988 1.5-2.206 1.5Zm-14.706 0c-1.218 0-2.206-.672-2.206-1.5s.988-1.5 2.206-1.5 2.206.672 2.206 1.5-.988 1.5-2.206 1.5Z" fill="#fff"/></g><defs><clipPath id="a"><path d="M0 4a4 4 0 0 1 4-4h47a4 4 0 0 1 4 4v47a4 4 0 0 1-4 4H4a4 4 0 0 1-4-4V4Z" fill="#fff"/></clipPath><clipPath id="b"><path fill="#fff" transform="translate(13 19)" d="M0 0h25v17H0z"/></clipPath></defs></svg>